<svg id="Layer_1" xmlns="http://www.w3.org/2000/svg" viewBox="0 0 162.7 45.5"><style>.st0{opacity:0.6;} .st1{fill:#245583;} .st2{fill:#FFFFFF;} .st3{fill:#FFFFFF;enable-background:new ;}</style><g class="st0"><path class="st2" d="M116.3 29.5c-.3-.1-2.6-.6-3-.6-.8-1.4-1.7-3-2.3-4.6l-9-22.4h-1.9s-3.3 7.9-3.6 8.6C94.1 5 88.7 1.6 82.3 1.6h-.2c-6.4 0-11.8 3.5-14.2 9-.3-.7-3.6-8.6-3.6-8.6h-1.9l-8.8 22.4c-.7 1.6-1.5 3.3-2.3 4.7-.4.1-2.4.6-2.7.6h.1v.3h9v-.3c-.1 0-3.2-.5-3.9-.6.4-1.9 1.6-4.8 2.4-6.8 0 0 .1-.2.2-.2h11.5c.3 0 .7 1.3 1.2 2 .4.6.8 1 1.2 1.5.6.7 1.4 1.3 2.1 1.9 1 .8 2.2 1.4 3.4 1.9.4.1.8.3 1.2.4.7.2 1.4.4 2.1.5.4.1.7.1 1.1.2h.2s.8.1 2.3.1l-1-1.6h-.2c-3.6-.3-6.8-2.5-8.5-5.8-.2-.5-.5-1-.6-1.5-.6-1.7-.9-3.5-.9-5.6 0-3.8 1.1-7 3.2-9.4 1.9-2.2 4.6-3.4 7.5-3.4h.4c2.9.1 5.5 1.3 7.5 3.4 2.1 2.3 3.2 5.6 3.2 9.4 0 2-.3 3.9-.9 5.6l-.6 1.5c-1.7 3.3-4.7 5.4-8.2 5.8 0 0 1.1.3 1.6 1.4.4 0 .1 0 .5-.1.7-.1 1.4-.3 2.1-.5.4-.1.8-.3 1.2-.4 1.2-.5 2.4-1.1 3.4-1.9.8-.6 1.5-1.3 2.1-2 .4-.5.9-.8 1.2-1.4.5-.7.9-2 1.2-2h11.5c.1 0 .2.2.2.2.8 2 2 5 2.4 6.9-.8.1-3.8.5-3.9.6v.3h10v-.3l-.8-.3zm-54.2-9.6c-1.6 0-3.4 0-5.1-.2.1-.3.4-1.1.4-1.1 1.1-2.8 3.1-7.9 4.5-10.8.2.5 4.9 11.5 5.1 11.9-1.8.2-3.5.2-4.9.2zM77.5 3.3l.1-.4h-.1c-1.7 1-3.3 1.8-4.7 3.2-2.1 2.1-3.4 5-3.8 8.1-.1.7-.1 1.4-.1 1.9 0 4.3 2.2 8.6 5.8 11 .9.6 1.9 1.2 3 1.5.1 0 .1.1.1.2s-.1.1-.1.1h-.2c-.1 0-.2-.1-.3-.1h-.1c-.4-.2-1.2-.5-1.8-.8-1.3-.6-2.4-1.5-3.4-2.5-1.4-1.4-2.5-3-3.2-4.7L67 16.7s-4.6-10.9-4.6-11c0 0 .5-1.2.6-1.4.1.3 4.1 9.7 4.1 9.7l.6 1.5h.1c0-1.1.3-2.3.6-3.4.9-2.7 2.6-5.1 4.9-6.9 1.3-1 2.8-1.8 4.3-2.2h.2c.1 0 .1 0 .1.1s-.4.2-.4.2zm18.2 17.4c-.7 1.7-1.8 3.4-3.3 4.7-1 1-2.2 1.8-3.4 2.5-.7.4-1.4.7-2.2.9h-.3c0-.1.1-.2.1-.2 1.1-.4 2-.9 3-1.5 3.6-2.5 5.8-6.7 5.8-11 0-.6 0-1.2-.1-1.9-.4-3.1-1.7-5.9-3.8-8-1.3-1.3-2.9-2.3-4.6-3 0 0-.4-.1-.3-.3 0-.1.2-.1.3 0 1.5.5 3 1.2 4.3 2.2 2.3 1.8 4.1 4.2 4.9 6.9.4 1.1.6 2.2.6 3.4h.1l.6-1.5s4-9.5 4.1-9.7c.1.2.5 1.4.6 1.4l-4.6 11-1.8 4.1zm6.5-.8c-1.5 0-3.2 0-4.9-.2.2-.4 4.8-11.4 5.1-11.9 1.4 2.9 3.4 8 4.5 10.8 0 0 .3.7.4 1.1-1.7.2-3.5.2-5.1.2z"/><path class="st2" d="M67.5 15.4l-.6-1.7s-4-8.9-4.1-9.9c.1 1 4.1 9.9 4.1 9.9l.6 1.7zm10-12.1zm-.4 25.4c.1 0 .2.1.3.1h.2-.2s-.2 0-.3-.1zm.6-25.8zM67.6 15.4c0-1.1.3-2.3.6-3.4.9-2.7 2.6-5.1 4.9-6.9 1.3-1 2.8-1.8 4.3-2.2-1.5.5-3 1.2-4.3 2.2-2.3 1.8-4.1 4.2-4.9 6.9-.3 1.1-.5 2.3-.6 3.4h-.1.1z"/><path class="st2" d="M68.6 20.7l-1.7-4.1s-4.6-10.9-4.6-11c0 0 .5-1.2.6-1.4-.1.2-.5 1.4-.6 1.4l4.6 11 1.7 4.1c.7 1.7 1.8 3.4 3.2 4.7 1 1 2.1 1.8 3.4 2.5-1.3-.6-2.3-1.5-3.4-2.5-1.4-1.3-2.5-2.9-3.2-4.7zm9.1-17.8c.1 0 .1 0 .1.1 0 .2-.3.3-.3.3s.4-.1.3-.3c0-.1 0-.1-.1-.1z"/><path class="st2" d="M69 14.2c-.1.7-.1 1.3-.1 1.9 0 4.3 2.2 8.6 5.8 11 .9.6 1.9 1.1 3 1.5.1 0 .1.1.1.2l-.1.1c.1 0 .1 0 .1-.1s-.1-.1-.1-.2c-1.1-.4-2-.9-3-1.5-3.6-2.5-5.8-6.7-5.8-11 0-.6.1-1.2.1-1.9.4-3.1 1.7-5.9 3.8-8 1.3-1.3 2.9-2.3 4.6-3-1.7.7-3.3 1.7-4.6 3-2.1 2.1-3.4 4.9-3.8 8z"/><path class="st2" d="M76.1 9.6c1.1 0 2 .7 2 1.8 0 1.6-1.2 2-2.3 2h-2v-.2c.3 0 .4-.1.5-.1v-3c0-.1-.2-.1-.5-.1v-.4h2.3zm-.6 3c0 .5 0 .4.2.4.6 0 1.2-.3 1.2-1.7 0-1-.5-1.4-1.4-1.4h-.1v2.7zm11.2-1.2c0-1 .9-1.9 2.1-1.9 1 0 1.9.8 1.9 1.9 0 1.4-1.2 2-2.1 2-.6 0-1.9-.4-1.9-2zm2.8 0c0-1.2-.5-1.7-.9-1.7s-.7.2-.7 1.4.4 1.8.9 1.8c.3.1.7 0 .7-1.5z"/><path class="st3" d="M84 32.2c.1-.1.2-.5.2-.9 0-.3 0-.5-.1-.8-.2-.6-.7-1.1-1.5-1.4l-.4-.1c-.1 0-.3-.1-.4-.2-.5-.3-.7-.7-.8-1.2v-.3c0-.4.1-1.5.3-1.8l-.1-.1c-.1 0-.5.1-.9.9-.3.5-.9 1.6-.5 2.7.3.7.9 1.2 1.8 1.5l.5.2.6.2c1 .5 1.1 1.2 1.1 1.2s0 .3.2.1z"/><path class="st3" d="M84.7 24.3c-.2-.6-.9-1.1-1.9-1.4l-.6-.2c-.3-.1-.6-.2-.8-.3-.5-.2-.8-.6-.8-1.1v-.2c0-.7.2-1.7.3-2 0-.1-.1-.1-.1-.1-.2 0-.7.3-1.1.9-.5.7-.8 1.8-.5 2.7.3.8 1.1 1.3 2.3 1.5h.1c.1.9.3 3.8.3 3.9.1 0 .1.1.2.1l.1.1h.1s.1 0 .2.1c0-.2.2-3 .2-3.8 0 0 .1 0 .1.1.5.3.7.6.7 1v.1c-.1.6-.3 1.8-.4 2.1v.1c.1 0 .6-.7.8-1 .6-.8.8-1.5.8-2.1.1-.2.1-.3 0-.5z"/><path class="st3" d="M85.1 17.6c-.3-.7-1-1.2-2.1-1.4-.3-.1-.5-.1-.8-.2-.5-.1-.9-.2-1.2-.3-.5-.2-.8-.5-.8-1v-.2c0-.5.2-1.6.3-2 0-.1-.1-.1-.1-.1-.2 0-.7.3-1.1.9-.3.4-.7 1.1-.7 1.9 0 .2 0 .5.1.7.3.8 1.1 1.3 2.4 1.6.1.9.2 3.6.3 3.7.1.1.2.1.4.2l.2.1h.3s.2 0 .3.1c0-.2.1-2.9.2-3.7 0 0 .1 0 .1.1.5.2.8.5.8 1v.1c0 .7-.3 1.7-.4 2 0 .1.1.1.1.1.2 0 .6-.3 1-.9.2-.3.8-1.2.8-2.1 0-.1 0-.4-.1-.6z"/><path class="st3" d="M88.2 8c-.2-.6-.5-1.3-.9-1.8-.3-.5-.7-.8-1.1-1-.4-.2-1.1-.4-1.8-.4h-.1c-.9-.8-2.5-1.2-3.9-.9-1.7.4-2.7 1.6-2.7 3.4v.1c0 2.3 1.6 3 3.1 3.4.1.9.3 3.8.3 3.9.2.1.4.2.6.2l.4.1h.2c.2 0 .5.1.7.1 0-.2.1-3 .1-3.8.1 0 .1 0 .2.1.5.2.8.5.8 1v.1c0 .7-.3 1.7-.4 2 0 .1.1.1.1.1.2 0 .7-.3 1.1-.9.4-.5.9-1.6.6-2.5-.2-.7-.9-1.2-2.1-1.6l-1.2-.3c-.6-.1-1.1-.3-1.5-.5-.6-.4-.9-.9-.9-1.5s.3-1.1.8-1.4c.1 0 .1-.1.2-.1 0 .5.1 1.8.2 1.9.2.1.5.2.7.3h.3c.3.1.8.1 1.2.3 0-.2.1-1.7.1-1.7v-.3s0-.1-.1-.1l.3.3c.2.2.3.4.4.6.1.2.2.3.2.4.9.9 2.3.8 3.9.6.1 0 .2-.1.2-.1zm-6.3-5c.7 0 .9 0 1.6.1V1c0-.8-1-1-1.5-1-.7 0-1.1.1-1.4.4-.1.2-.2.4-.2.7 0 0 .1 1.9.1 2.1.5-.1 1.4-.2 1.4-.2z"/><path class="st2" d="M.2 35.3h162.5v.9H.2zM55.8 43c0 1.4-1 2.5-2.4 2.5S51 44.4 51 43s1-2.5 2.4-2.5 2.4 1.1 2.4 2.5zm-.9 0c0-.9-.6-1.6-1.4-1.6-.8 0-1.4.7-1.4 1.6 0 .9.6 1.6 1.4 1.6.8 0 1.4-.7 1.4-1.6zm6.4-.9h-.9c0-.4-.3-.7-.9-.7-.5 0-.9.2-.9.6 0 .3.3.5 1.1.6 1.1.2 1.9.5 1.9 1.5 0 .9-.8 1.5-2 1.5-.9 0-2-.5-2-1.7h.9c0 .6.6.8 1.1.8.5 0 1.1-.2 1.1-.6 0-.3-.3-.5-1.1-.7-.9-.2-1.8-.4-1.8-1.5 0-.8.7-1.4 1.9-1.4 1 0 1.6.8 1.6 1.6zm3.7-.6v4h-.9v-4h-1.3v-.9h3.5v.9H65zm6.6 3.9H68v-4.8h3.5v.9H69v1h2.2v.9H69v1.2h2.7v.8zm6.2-2.4c0 1.4-1 2.5-2.4 2.5S73 44.4 73 43s1-2.5 2.4-2.5c1.5 0 2.4 1.1 2.4 2.5zm-.9 0c0-.9-.6-1.6-1.4-1.6-.8 0-1.4.7-1.4 1.6 0 .9.6 1.6 1.4 1.6.8 0 1.4-.7 1.4-1.6zm4.9.7h-1.1v1.7h-.9v-4.8h2c1 0 1.6.6 1.6 1.6-.1.9-.7 1.5-1.6 1.5zm-1.2-2.2v1.4h1.1c.4 0 .7-.2.7-.7 0-.5-.3-.7-.7-.7h-1.1zm4.9 3l-.3 1h-1l1.7-4.8H87l1.7 4.8h-1l-.3-1h-1.9zm.9-2.9l-.7 2H87l-.6-2zm5.3-.1v4h-.9v-4h-1.3v-.9H93v.9h-1.3zm6.9 3.9h-.9v-2h-2.1v2h-.9v-4.8h.9v1.9h2.1v-1.9h.9v4.8zm3 0h-.9v-4.8h.9v4.8zm4.2.1c-1.3 0-2.3-1.1-2.3-2.5s1-2.5 2.3-2.5c1.1 0 1.9.6 2.2 1.6h-1c-.2-.4-.6-.8-1.2-.8-.8 0-1.4.8-1.4 1.7 0 .9.6 1.7 1.4 1.7.5 0 1-.3 1.2-.8h1c-.3 1-1.1 1.6-2.2 1.6z"/><path class="st3" d="M7.3 40.6h-.9v4.8H7v-4l1.4 4H9l1.4-4v4h.6v-4.8h-.9l-1.4 4.1-1.4-4.1zm9.8.6v-.5h-3.4v4.8h3.4V45h-2.9v-1.7h2.6v-.5h-2.6v-1.5c0-.1 2.9-.1 2.9-.1zm5.9 3c0-.5-.2-.8-.5-1 .4-.2.7-.7.7-1.2 0-.9-.6-1.4-1.5-1.4h-2.1v4.8h.6v-1.9h1.6c.5 0 .8.2.8.7v.7c0 .2 0 .4.1.5h.6c-.2-.1-.3-.4-.3-.6v-.6zM21.6 43H20v-1.8h1.5c.6 0 1 .3 1 .9.1.5-.3.9-.9.9zM2.5 40.6h-.6S.1 45.3.1 45.4h.6l.5-1.4h2l.5 1.4h.6c-.1 0-1.8-4.8-1.8-4.8zm-1.2 2.9l.8-2.2.8 2.2H1.3zm24.9-2.9h-.6v4.8h.6v-4.8zM31 45c-1 0-1.8-.9-1.8-2s.8-2 1.8-2c.7 0 1.3.4 1.6 1h.6c-.3-1-1.2-1.6-2.2-1.6-1.3 0-2.4 1.1-2.4 2.5s1.1 2.5 2.4 2.5c1 0 1.9-.6 2.2-1.6h-.6c-.3.8-.9 1.2-1.6 1.2zm6.5-4.4h-.6s-1.8 4.7-1.8 4.8h.6l.5-1.4h2l.5 1.4h.6c-.1 0-1.8-4.8-1.8-4.8zm-1.2 2.9l.8-2.2.8 2.2h-1.6zm5.1-2.9v4.8h.6v-4s2.6 3.9 2.6 4h.6v-4.8h-.6v4s-2.6-3.9-2.6-4h-.6zm73.8 0h-.6s-1.8 4.7-1.8 4.8h.6l.5-1.4h2l.5 1.4h.6l-1.8-4.8zm-1.1 2.9l.8-2.2.8 2.2h-1.6zm5.7-.9c-.9-.2-1.2-.4-1.2-.8 0-.5.4-.8 1.1-.8.7 0 1.1.4 1.1.9h.6c0-.9-.7-1.5-1.7-1.5s-1.7.5-1.7 1.3c0 .7.5 1.1 1.7 1.3 1 .2 1.3.5 1.3.9 0 .6-.4.9-1.2.9-.7 0-1.2-.4-1.2-1h-.6c0 .9.7 1.6 1.8 1.6s1.8-.5 1.8-1.4c-.1-.9-.8-1.1-1.8-1.4zm4.7 0c-.9-.2-1.2-.4-1.2-.8 0-.5.4-.8 1.1-.8.7 0 1.1.4 1.1.9h.6c0-.9-.7-1.5-1.7-1.5s-1.7.5-1.7 1.3c0 .7.5 1.1 1.7 1.3 1.1.2 1.3.5 1.3.9 0 .6-.4.9-1.2.9-.7 0-1.2-.4-1.2-1h-.6c0 .9.7 1.6 1.8 1.6s1.8-.5 1.8-1.4c-.1-.9-.8-1.1-1.8-1.4zm5.2-2.1c-1.3 0-2.4 1.1-2.4 2.5s1 2.5 2.4 2.5c1.3 0 2.4-1.1 2.4-2.5-.1-1.4-1.1-2.5-2.4-2.5zm0 4.5c-1 0-1.8-.9-1.8-2s.8-2 1.8-2 1.8.8 1.8 2c0 1.1-.8 2-1.8 2zm5.8 0c-1 0-1.8-.9-1.8-2s.8-2 1.8-2c.7 0 1.3.4 1.6 1h.6c-.3-1-1.2-1.6-2.2-1.6-1.3 0-2.4 1.1-2.4 2.5s1.1 2.5 2.4 2.5c1 0 1.8-.6 2.2-1.6h-.6c-.3.8-.9 1.2-1.6 1.2zm4.1-4.4h-.6v4.8h.6v-4.8zm3.7 0h-.6s-1.8 4.7-1.8 4.8h.6l.5-1.4h2l.5 1.4h.6l-1.8-4.8zm-1.1 2.9l.8-2.2.8 2.2h-1.6zm4.7 1.9h.6v-4.3h1.5v-.5h-3.6v.5h1.5v4.3zm4-4.8h-.6v4.8h.6v-4.8zm3.8-.1c-1.3 0-2.4 1.1-2.4 2.5s1 2.5 2.4 2.5c1.3 0 2.4-1.1 2.4-2.5s-1-2.5-2.4-2.5zm0 4.5c-1 0-1.8-.9-1.8-2s.8-2 1.8-2 1.8.8 1.8 2c0 1.1-.8 2-1.8 2zm3.8-4.4v4.8h.6v-4s2.6 3.9 2.6 4h.6v-4.8h-.6v4s-2.6-3.9-2.6-4h-.6z"/><path class="st2" d="M109.2 7.9c-1.7 0-3.1-1.4-3.1-3.1 0-1.7 1.4-3.1 3.1-3.1 1.7 0 3.1 1.4 3.1 3.1 0 1.7-1.4 3.1-3.1 3.1zm0-5.6c-1.4 0-2.5 1.1-2.5 2.5s1.1 2.5 2.5 2.5 2.5-1.1 2.5-2.5-1.2-2.5-2.5-2.5zm1.5 4.1h-.7l-.6-1.2h-.8v1.2h-.6V3h1.6c.7 0 1.2.4 1.2 1.1 0 .5-.3.9-.7 1l.6 1.3zm-1.1-1.8c.3 0 .5-.1.5-.5s-.2-.5-.5-.5h-1v1h1z"/></g></svg>