<svg id="Layer_1" xmlns="http://www.w3.org/2000/svg" viewBox="0 0 72.4 72.4"><style>.st0{fill:#ffffff;}</style><path class="st0" d="M65.7 72.4H6.9c-3.8 0-6.9-3.1-6.9-6.9V6.9C.2 3.1 3.1 0 6.9 0h58.6c3.8 0 6.9 3.1 6.9 6.9v58.6c.2 4-2.9 6.9-6.7 6.9zM6.9 3.6C5 3.6 3.6 5 3.6 6.9v58.6c0 1.9 1.4 3.3 3.3 3.3h58.6c1.9 0 3.3-1.4 3.3-3.3V6.9c0-1.9-1.4-3.3-3.3-3.3H6.9z"/><path class="st0" d="M19.5 67.4c-7.1 0-12.8-5.7-12.8-12.8V18.5c0-7.1 5.7-12.8 12.8-12.8s12.8 5.7 12.8 12.8v36.1c0 7.1-5.7 12.8-12.8 12.8zm0-58.1c-5 0-9.3 4-9.3 9.3v36.1c0 5.2 4.3 9.3 9.3 9.3 5.2 0 9.3-4.3 9.3-9.3V18.5c-.1-5.2-4.1-9.2-9.3-9.2zM64.8 26.6H35.3V10.7h29.4v15.9zM38.9 23h22.3v-8.8H38.9V23zM60.5 29.9h2.6v3.6h-2.6zM52.7 29.9h2.6v3.6h-2.6zM44.8 29.9h2.6v3.6h-2.6zM37.2 29.9h2.6v3.6h-2.6zM60.5 37.7h2.6v3.6h-2.6zM52.7 37.7h2.6v3.6h-2.6zM44.8 37.7h2.6v3.6h-2.6zM37.2 37.7h2.6v3.6h-2.6zM60.5 45.5h2.6v3.6h-2.6zM52.7 45.5h2.6v3.6h-2.6zM44.8 45.5h2.6v3.6h-2.6zM37.2 45.5h2.6v3.6h-2.6zM60.5 53.1h2.6v3.6h-2.6zM52.7 53.1h2.6v3.6h-2.6zM44.8 53.1h2.6v3.6h-2.6zM37.2 53.1h2.6v3.6h-2.6z"/></svg>
