<?xml version="1.0" encoding="utf-8"?>
<!-- Generator: Adobe Illustrator 19.2.0, SVG Export Plug-In . SVG Version: 6.00 Build 0)  -->
<svg version="1.1" id="Layer_1" xmlns="http://www.w3.org/2000/svg" xmlns:xlink="http://www.w3.org/1999/xlink" x="0px" y="0px"
	 viewBox="0 0 244 47" style="enable-background:new 0 0 244 47;" xml:space="preserve">
<style type="text/css">
	.st0{fill:#00B0B9;}
	.st1{display:none;}
	.st2{display:inline;}
	.st3{fill:#FFFFFF;}
	.st4{opacity:0.6;}
	.st5{fill:#BBBDBF;}
	.st6{fill:#404041;}
	.st7{fill:#58595B;}
</style>
<g id="logo_1_">
	<g>
		<polygon class="st0" points="45.8,-196.9 59.7,-196.9 68.3,-182.8 76.8,-196.9 90.8,-196.9 90.8,-156.9 77.5,-156.9 77.5,-176.7 
			68.3,-162.5 68,-162.5 58.8,-176.7 58.8,-156.9 45.8,-156.9 		"/>
		<g>
			<path class="st0" d="M130.4-196.9h15.3c15.9,0,23.8,7.8,23.8,19.7v0.1c0,11.8-8.1,20.2-24.3,20.2h-14.9V-196.9z M146-168.5
				c6.1,0,10.1-2.5,10.1-8.3v-0.1c0-5.8-3.9-8.3-10.1-8.3h-2.2v16.7H146z"/>
			<path class="st0" d="M0-177.3v-0.1c0-11.6,9.5-20.9,21.9-20.9c12.3,0,21.8,9.1,21.8,20.7v0.1c0,11.6-9.5,20.9-21.9,20.9
				S0-165.7,0-177.3 M30.2-177.3v-0.1c0-4.7-3.3-9-8.4-9c-5.1,0-8.3,4.2-8.3,8.9v0.1c0,4.7,3.3,9,8.4,9
				C27-168.3,30.2-172.6,30.2-177.3"/>
		</g>
		<polygon class="st0" points="127.7,-185.9 127.7,-196.9 93.6,-196.9 93.6,-156.9 127.7,-156.9 127.7,-167.8 104.6,-167.8 
			104.6,-172.2 124.3,-172.2 124.3,-181.8 104.6,-181.8 104.6,-185.9 		"/>
		<g>
			<path class="st0" d="M175.7-198.7c0.5,0.2,1,0.5,1.4,0.9c0.4,0.4,0.7,0.9,0.9,1.4c0.2,0.5,0.3,1.1,0.3,1.7c0,0.6-0.1,1.2-0.3,1.7
				c-0.2,0.5-0.5,1-0.9,1.4c-0.4,0.4-0.9,0.7-1.4,0.9c-0.5,0.2-1.1,0.3-1.7,0.3c-0.6,0-1.2-0.1-1.7-0.3c-0.5-0.2-1-0.5-1.4-0.9
				c-0.4-0.4-0.7-0.9-0.9-1.4c-0.2-0.5-0.3-1.1-0.3-1.7c0-0.6,0.1-1.2,0.3-1.7c0.2-0.5,0.5-1,0.9-1.4c0.4-0.4,0.9-0.7,1.4-0.9
				c0.5-0.2,1.1-0.3,1.7-0.3C174.6-199,175.2-198.9,175.7-198.7 M172.5-198.1c-0.5,0.2-0.9,0.5-1.2,0.8c-0.3,0.3-0.6,0.7-0.8,1.2
				c-0.2,0.5-0.3,1-0.3,1.5c0,0.5,0.1,1,0.3,1.5c0.2,0.5,0.4,0.9,0.8,1.2c0.3,0.3,0.7,0.6,1.2,0.8c0.5,0.2,0.9,0.3,1.5,0.3
				c0.5,0,1-0.1,1.5-0.3c0.5-0.2,0.9-0.5,1.2-0.8c0.3-0.3,0.6-0.7,0.8-1.2c0.2-0.5,0.3-1,0.3-1.5c0-0.5-0.1-1-0.3-1.5
				c-0.2-0.5-0.5-0.9-0.8-1.2c-0.3-0.3-0.7-0.6-1.2-0.8c-0.5-0.2-0.9-0.3-1.5-0.3C173.4-198.4,172.9-198.3,172.5-198.1 M172.3-192.1
				v-5.1h2c0.6,0,1,0.1,1.3,0.4c0.3,0.2,0.4,0.6,0.4,1c0,0.2,0,0.4-0.1,0.6c-0.1,0.2-0.2,0.3-0.3,0.4c-0.1,0.1-0.3,0.2-0.4,0.3
				c-0.2,0.1-0.3,0.1-0.5,0.1l1.5,2.3h-0.7l-1.4-2.3H173v2.3H172.3z M174.4-194.9c0.2,0,0.4,0,0.5-0.1c0.1-0.1,0.3-0.1,0.3-0.3
				c0.1-0.1,0.1-0.3,0.1-0.5c0-0.2,0-0.3-0.1-0.4c-0.1-0.1-0.2-0.2-0.3-0.3c-0.1-0.1-0.2-0.1-0.4-0.1c-0.1,0-0.3,0-0.5,0H173v1.8
				h0.8C174-194.9,174.2-194.9,174.4-194.9"/>
		</g>
		<polygon class="st0" points="193.3,-186.5 186.7,-185 184.6,-193.4 196.1,-196.7 204.1,-196.7 204.1,-157.1 193.3,-157.1 		"/>
	</g>
	<g>
		<path class="st0" d="M213.6-160.9c-3-3-4.9-7.5-4.9-15v-0.1c0-12.5,6.1-22.1,18.7-22.1c5.6,0,9.5,1.6,13.4,4.4l-5.2,7.9
			c-2.5-1.8-4.8-3-8-3c-4.7,0-7.1,3.5-7.6,8.6c2.1-1.6,4.7-3.1,8.7-3.1c7.1,0,13.3,4.5,13.3,12.5v0.1c0,9-7.2,14.5-16,14.5
			C220.2-156.3,216.5-158,213.6-160.9z M231-170.2v-0.1c0-2.9-2.2-5.2-5.7-5.2c-3.5,0-5.6,2.2-5.6,5.1v0.1c0,2.9,2.2,5.2,5.7,5.2
			S231-167.2,231-170.2z"/>
	</g>
</g>
<g>
	<g class="st1">
		<g class="st2">
			<polygon class="st3" points="50.5,-195.6 64.4,-195.6 73,-181.5 81.6,-195.6 95.5,-195.6 95.5,-155.6 82.2,-155.6 82.2,-175.4 
				73,-161.2 72.8,-161.2 63.6,-175.4 63.6,-155.6 50.5,-155.6 			"/>
			<g>
				<path class="st3" d="M135.1-195.6h15.3c15.9,0,23.8,7.8,23.8,19.7v0.1c0,11.8-8.1,20.2-24.3,20.2h-14.9V-195.6z M150.7-167.2
					c6.1,0,10.1-2.5,10.1-8.3v-0.1c0-5.8-3.9-8.3-10.1-8.3h-2.2v16.7H150.7z"/>
				<path class="st3" d="M4.7-176v-0.1c0-11.6,9.5-20.9,21.9-20.9c12.3,0,21.8,9.1,21.8,20.7v0.1c0,11.6-9.5,20.9-21.9,20.9
					S4.7-164.4,4.7-176 M34.9-176v-0.1c0-4.7-3.3-9-8.4-9c-5.1,0-8.3,4.2-8.3,8.9v0.1c0,4.7,3.3,9,8.4,9
					C31.7-167.1,34.9-171.3,34.9-176"/>
			</g>
			<polygon class="st3" points="132.5,-184.6 132.5,-195.6 98.4,-195.6 98.4,-155.6 132.5,-155.6 132.5,-166.6 109.4,-166.6 
				109.4,-170.9 129.1,-170.9 129.1,-180.5 109.4,-180.5 109.4,-184.6 			"/>
			<g>
				<path class="st3" d="M180.4-197.4c0.5,0.2,1,0.5,1.4,0.9c0.4,0.4,0.7,0.9,0.9,1.4c0.2,0.5,0.3,1.1,0.3,1.7
					c0,0.6-0.1,1.2-0.3,1.7c-0.2,0.5-0.5,1-0.9,1.4c-0.4,0.4-0.9,0.7-1.4,0.9c-0.5,0.2-1.1,0.3-1.7,0.3c-0.6,0-1.2-0.1-1.7-0.3
					c-0.5-0.2-1-0.5-1.4-0.9c-0.4-0.4-0.7-0.9-0.9-1.4c-0.2-0.5-0.3-1.1-0.3-1.7c0-0.6,0.1-1.2,0.3-1.7c0.2-0.5,0.5-1,0.9-1.4
					c0.4-0.4,0.9-0.7,1.4-0.9c0.5-0.2,1.1-0.3,1.7-0.3C179.3-197.8,179.9-197.6,180.4-197.4 M177.2-196.8c-0.5,0.2-0.9,0.5-1.2,0.8
					c-0.3,0.3-0.6,0.7-0.8,1.2c-0.2,0.5-0.3,1-0.3,1.5c0,0.5,0.1,1,0.3,1.5c0.2,0.5,0.4,0.9,0.8,1.2c0.3,0.3,0.7,0.6,1.2,0.8
					c0.5,0.2,0.9,0.3,1.5,0.3c0.5,0,1-0.1,1.5-0.3c0.5-0.2,0.9-0.5,1.2-0.8c0.3-0.3,0.6-0.7,0.8-1.2c0.2-0.5,0.3-1,0.3-1.5
					c0-0.5-0.1-1-0.3-1.5c-0.2-0.5-0.5-0.9-0.8-1.2c-0.3-0.3-0.7-0.6-1.2-0.8c-0.5-0.2-0.9-0.3-1.5-0.3
					C178.2-197.1,177.7-197,177.2-196.8 M177.1-190.8v-5.1h2c0.6,0,1,0.1,1.3,0.4c0.3,0.2,0.4,0.6,0.4,1c0,0.2,0,0.4-0.1,0.6
					c-0.1,0.2-0.2,0.3-0.3,0.4c-0.1,0.1-0.3,0.2-0.4,0.3c-0.2,0.1-0.3,0.1-0.5,0.1l1.5,2.3h-0.7l-1.4-2.3h-1.1v2.3H177.1z
					 M179.1-193.6c0.2,0,0.4,0,0.5-0.1c0.1-0.1,0.3-0.1,0.3-0.3c0.1-0.1,0.1-0.3,0.1-0.5c0-0.2,0-0.3-0.1-0.4
					c-0.1-0.1-0.2-0.2-0.3-0.3c-0.1-0.1-0.2-0.1-0.4-0.1c-0.1,0-0.3,0-0.5,0h-1.2v1.8h0.8C178.7-193.6,178.9-193.6,179.1-193.6"/>
			</g>
			<polygon class="st3" points="198.1,-185.2 191.4,-183.7 189.4,-192.2 200.9,-195.4 208.8,-195.4 208.8,-155.8 198.1,-155.8 			
				"/>
		</g>
		<g class="st2">
			<path class="st3" d="M218.4-159.6c-3-3-4.9-7.5-4.9-15v-0.1c0-12.5,6.1-22.1,18.7-22.1c5.6,0,9.5,1.6,13.4,4.4l-5.2,7.9
				c-2.5-1.8-4.8-3-8-3c-4.7,0-7.1,3.5-7.6,8.6c2.1-1.6,4.7-3.1,8.7-3.1c7.1,0,13.3,4.5,13.3,12.5v0.1c0,9-7.2,14.5-16,14.5
				C225-155,221.2-156.8,218.4-159.6z M235.8-168.9v-0.1c0-2.9-2.2-5.2-5.7-5.2c-3.5,0-5.6,2.2-5.6,5.1v0.1c0,2.9,2.2,5.2,5.7,5.2
				S235.8-165.9,235.8-168.9z"/>
		</g>
	</g>
	<g class="st4">
		<path class="st3" d="M291.2-195.6h5.5c2.3,0,3.8,0.5,4.8,1.5c0.8,0.8,1.2,1.8,1.2,3.1c0,1.5-0.5,2.7-1.4,3.6
			c-0.8,0.8-2,1.5-3.5,1.8l2.6,5.2h-3.8l-2.4-4.9h-2.5l-1.3,4.9h-3.4L291.2-195.6z M295.5-188.2c1.3,0,2.4-0.3,3.1-1
			c0.4-0.4,0.6-0.9,0.6-1.5c0-0.5-0.2-0.9-0.5-1.2c-0.4-0.4-1.2-0.6-2.2-0.6h-2.8l-1.2,4.4H295.5z"/>
		<path class="st3" d="M306.6-185c0.1,1.4,0.9,2.3,2.7,2.3c0.9,0,1.6-0.3,2.6-0.9l1.5,2c-1,0.9-2.5,1.5-4.5,1.5
			c-3.4,0-5.4-2-5.4-5.2c0-3.4,2.7-7,6.9-7c3,0,4.8,2,4.8,4.5c0,0.8-0.2,1.8-0.6,2.7H306.6z M306.9-187.1h5.1
			c0.1-0.2,0.1-0.5,0.1-0.8c0-1-0.6-1.7-1.9-1.7C308.7-189.5,307.5-188.5,306.9-187.1z"/>
		<path class="st3" d="M318.9-192h3.3l-0.3,1.2c0.8-0.7,1.9-1.4,3.2-1.4c2.1,0,3.4,1.3,3.4,3.4c0,0.7-0.2,1.5-0.4,2.2l-1.7,6.3h-3.3
			l1.7-6.4c0.1-0.3,0.2-0.8,0.2-1c0-0.9-0.6-1.4-1.6-1.4c-1.3,0-2.2,0.9-2.5,2.3l-1.8,6.5h-3.3L318.9-192z"/>
		<path class="st3" d="M333.3-185c0.1,1.4,0.9,2.3,2.7,2.3c0.9,0,1.6-0.3,2.6-0.9l1.5,2c-1,0.9-2.5,1.5-4.5,1.5
			c-3.4,0-5.4-2-5.4-5.2c0-3.4,2.7-7,6.9-7c3,0,4.8,2,4.8,4.5c0,0.8-0.2,1.8-0.6,2.7H333.3z M333.6-187.1h5.1
			c0.1-0.2,0.1-0.5,0.1-0.8c0-1-0.6-1.7-1.9-1.7C335.4-189.5,334.2-188.5,333.6-187.1z"/>
		<path class="st3" d="M343.9-192h3.4l0,7.1l4.1-7.1h2.9l0.3,7.1l3.8-7.1h3.3l-6.8,11.7h-3l-0.3-7.2l-4.2,7.2h-3L343.9-192z"/>
		<path class="st3" d="M368.4-177.3l0.6-1.3c0.5,0.3,1,0.4,1.8,0.4c1,0,1.6-0.5,2.3-2.1l-5.1-11.2h1.8l4.1,9.4l3.6-9.4h1.8
			l-4.7,11.6c-1,2.3-2,3.2-3.7,3.2C369.9-176.8,369.2-177,368.4-177.3z"/>
		<path class="st3" d="M380.6-185.9L380.6-185.9c0-3.2,2.5-5.9,5.9-5.9c3.4,0,5.9,2.7,5.9,5.8v0c0,3.2-2.5,5.9-5.9,5.9
			C383-180.1,380.6-182.7,380.6-185.9z M390.6-185.9L390.6-185.9c0-2.5-1.8-4.4-4.2-4.4c-2.4,0-4.1,2-4.1,4.4v0
			c0,2.4,1.8,4.4,4.2,4.4C388.9-181.6,390.6-183.5,390.6-185.9z"/>
		<path class="st3" d="M395.1-184.6v-7h1.7v6.6c0,2.1,1.1,3.4,3.1,3.4c1.9,0,3.4-1.4,3.4-3.5v-6.4h1.7v11.2h-1.7v-2
			c-0.8,1.2-1.9,2.2-3.9,2.2C396.7-180.1,395.1-181.9,395.1-184.6z"/>
		<path class="st3" d="M408.7-191.6h1.7v2.9c0.8-1.9,2.5-3.2,4.6-3.1v1.8h-0.1c-2.5,0-4.5,1.8-4.5,5.2v4.5h-1.7V-191.6z"/>
		<path class="st3" d="M424.1-191.6h1.7v2.3c0.9-1.3,2.2-2.5,4.3-2.5c2.7,0,5.4,2.1,5.4,5.8v0c0,3.7-2.7,5.9-5.4,5.9
			c-2.1,0-3.4-1.1-4.3-2.4v5.6h-1.7V-191.6z M433.7-185.9L433.7-185.9c0-2.7-1.8-4.4-4-4.4c-2.1,0-4.1,1.8-4.1,4.3v0
			c0,2.6,2,4.4,4.1,4.4C431.9-181.6,433.7-183.2,433.7-185.9z"/>
		<path class="st3" d="M438.3-184.6v-7h1.7v6.6c0,2.1,1.1,3.4,3.1,3.4c1.9,0,3.4-1.4,3.4-3.5v-6.4h1.7v11.2h-1.7v-2
			c-0.8,1.2-1.9,2.2-3.9,2.2C439.9-180.1,438.3-181.9,438.3-184.6z"/>
		<path class="st3" d="M451.9-191.6h1.7v2.9c0.8-1.9,2.5-3.2,4.6-3.1v1.8h-0.1c-2.5,0-4.5,1.8-4.5,5.2v4.5h-1.7V-191.6z"/>
		<path class="st3" d="M460.7-191.6h1.7v2.3c0.9-1.3,2.2-2.5,4.3-2.5c2.7,0,5.4,2.1,5.4,5.8v0c0,3.7-2.7,5.9-5.4,5.9
			c-2.1,0-3.4-1.1-4.3-2.4v5.6h-1.7V-191.6z M470.4-185.9L470.4-185.9c0-2.7-1.8-4.4-4-4.4c-2.1,0-4.1,1.8-4.1,4.3v0
			c0,2.6,2,4.4,4.1,4.4C468.6-181.6,470.4-183.2,470.4-185.9z"/>
		<path class="st3" d="M474.5-185.9L474.5-185.9c0-3.2,2.5-5.9,5.9-5.9c3.4,0,5.9,2.7,5.9,5.8v0c0,3.2-2.5,5.9-5.9,5.9
			C477-180.1,474.5-182.7,474.5-185.9z M484.5-185.9L484.5-185.9c0-2.5-1.8-4.4-4.2-4.4c-2.4,0-4.1,2-4.1,4.4v0
			c0,2.4,1.8,4.4,4.2,4.4C482.8-181.6,484.5-183.5,484.5-185.9z"/>
		<path class="st3" d="M488.3-181.8l0.8-1.2c1.2,0.9,2.6,1.4,3.9,1.4c1.3,0,2.3-0.7,2.3-1.8v0c0-1.1-1.3-1.6-2.8-2
			c-1.8-0.5-3.7-1.1-3.7-3.2v0c0-1.9,1.6-3.2,3.8-3.2c1.4,0,2.9,0.5,4,1.2l-0.8,1.3c-1-0.7-2.2-1.1-3.3-1.1c-1.3,0-2.2,0.7-2.2,1.6
			v0c0,1.1,1.4,1.5,2.9,1.9c1.7,0.5,3.6,1.2,3.6,3.2v0c0,2.1-1.8,3.4-4,3.4C491.4-180.1,489.6-180.7,488.3-181.8z"/>
		<path class="st3" d="M505.1-181.5c1.5,0,2.6-0.6,3.5-1.6l1,0.9c-1.1,1.3-2.5,2.1-4.6,2.1c-3.1,0-5.6-2.4-5.6-5.9
			c0-3.3,2.3-5.9,5.4-5.9c3.3,0,5.2,2.7,5.2,6c0,0.2,0,0.3,0,0.6h-8.9C501.3-182.9,503.1-181.5,505.1-181.5z M508.3-186.6
			c-0.2-2-1.4-3.8-3.6-3.8c-1.9,0-3.4,1.6-3.7,3.8H508.3z"/>
		<path class="st3" d="M512.6-182.6h2v2.3h-2V-182.6z"/>
		<path class="st3" d="M291.2-170.8h5.5c2.3,0,3.8,0.5,4.8,1.5c0.8,0.8,1.2,1.8,1.2,3.1c0,1.5-0.5,2.7-1.4,3.6
			c-0.8,0.8-2,1.5-3.5,1.8l2.6,5.2h-3.8l-2.4-4.9h-2.5l-1.3,4.9h-3.4L291.2-170.8z M295.5-163.4c1.3,0,2.4-0.3,3.1-1
			c0.4-0.4,0.6-0.9,0.6-1.5c0-0.5-0.2-0.9-0.5-1.2c-0.4-0.4-1.2-0.6-2.2-0.6h-2.8l-1.2,4.4H295.5z"/>
		<path class="st3" d="M306.6-160.3c0.1,1.4,0.9,2.3,2.7,2.3c0.9,0,1.6-0.3,2.6-0.9l1.5,2c-1,0.9-2.5,1.5-4.5,1.5
			c-3.4,0-5.4-2-5.4-5.2c0-3.4,2.7-7,6.9-7c3,0,4.8,2,4.8,4.5c0,0.8-0.2,1.8-0.6,2.7H306.6z M306.9-162.3h5.1
			c0.1-0.2,0.1-0.5,0.1-0.8c0-1-0.6-1.7-1.9-1.7C308.7-164.8,307.5-163.8,306.9-162.3z"/>
		<path class="st3" d="M318.9-167.2h3.3l-0.3,1.2c0.8-0.7,1.9-1.4,3.2-1.4c2.1,0,3.4,1.3,3.4,3.4c0,0.7-0.2,1.5-0.4,2.2l-1.7,6.3
			h-3.3l1.7-6.4c0.1-0.3,0.2-0.8,0.2-1c0-0.9-0.6-1.4-1.6-1.4c-1.3,0-2.2,0.9-2.5,2.3l-1.8,6.5h-3.3L318.9-167.2z"/>
		<path class="st3" d="M333.3-160.3c0.1,1.4,0.9,2.3,2.7,2.3c0.9,0,1.6-0.3,2.6-0.9l1.5,2c-1,0.9-2.5,1.5-4.5,1.5
			c-3.4,0-5.4-2-5.4-5.2c0-3.4,2.7-7,6.9-7c3,0,4.8,2,4.8,4.5c0,0.8-0.2,1.8-0.6,2.7H333.3z M333.6-162.3h5.1
			c0.1-0.2,0.1-0.5,0.1-0.8c0-1-0.6-1.7-1.9-1.7C335.4-164.8,334.2-163.8,333.6-162.3z"/>
		<path class="st3" d="M343.9-167.2h3.4l0,7.1l4.1-7.1h2.9l0.3,7.1l3.8-7.1h3.3l-6.8,11.8h-3l-0.3-7.2l-4.2,7.2h-3L343.9-167.2z"/>
		<path class="st3" d="M368.4-152.6l0.6-1.3c0.5,0.3,1,0.4,1.8,0.4c1,0,1.6-0.5,2.3-2.1l-5.1-11.2h1.8l4.1,9.4l3.6-9.4h1.8
			l-4.7,11.6c-1,2.3-2,3.2-3.7,3.2C369.9-152,369.2-152.2,368.4-152.6z"/>
		<path class="st3" d="M380.6-161.2L380.6-161.2c0-3.2,2.5-5.9,5.9-5.9c3.4,0,5.9,2.7,5.9,5.8v0c0,3.2-2.5,5.9-5.9,5.9
			C383-155.3,380.6-158,380.6-161.2z M390.6-161.2L390.6-161.2c0-2.5-1.8-4.4-4.2-4.4c-2.4,0-4.1,2-4.1,4.4v0c0,2.4,1.8,4.4,4.2,4.4
			C388.9-156.8,390.6-158.8,390.6-161.2z"/>
		<path class="st3" d="M395.1-159.9v-7h1.7v6.6c0,2.1,1.1,3.4,3.1,3.4c1.9,0,3.4-1.4,3.4-3.5v-6.4h1.7v11.2h-1.7v-2
			c-0.8,1.2-1.9,2.2-3.9,2.2C396.7-155.3,395.1-157.2,395.1-159.9z"/>
		<path class="st3" d="M408.7-166.8h1.7v2.9c0.8-1.9,2.5-3.2,4.6-3.1v1.8h-0.1c-2.5,0-4.5,1.8-4.5,5.2v4.5h-1.7V-166.8z"/>
		<path class="st3" d="M424.1-166.8h1.7v2.3c0.9-1.3,2.2-2.5,4.3-2.5c2.7,0,5.4,2.1,5.4,5.8v0c0,3.7-2.7,5.9-5.4,5.9
			c-2.1,0-3.4-1.1-4.3-2.4v5.6h-1.7V-166.8z M433.7-161.2L433.7-161.2c0-2.7-1.8-4.4-4-4.4c-2.1,0-4.1,1.8-4.1,4.3v0
			c0,2.6,2,4.4,4.1,4.4C431.9-156.8,433.7-158.5,433.7-161.2z"/>
		<path class="st3" d="M437.7-158.8L437.7-158.8c0-2.5,2-3.7,4.8-3.7c1.4,0,2.4,0.2,3.4,0.5v-0.3c0-2-1.2-3-3.3-3
			c-1.3,0-2.4,0.3-3.4,0.8l-0.5-1.4c1.2-0.6,2.4-1,4.1-1c1.6,0,2.8,0.4,3.6,1.2c0.8,0.8,1.2,1.9,1.2,3.3v6.9h-1.7v-1.7
			c-0.8,1-2.1,1.9-4,1.9C439.8-155.3,437.7-156.5,437.7-158.8z M445.9-159.7v-1c-0.8-0.2-1.9-0.5-3.3-0.5c-2.1,0-3.3,0.9-3.3,2.3v0
			c0,1.4,1.3,2.2,2.8,2.2C444.3-156.7,445.9-157.9,445.9-159.7z"/>
		<path class="st3" d="M450.2-157l0.8-1.2c1.2,0.9,2.6,1.4,3.9,1.4c1.3,0,2.3-0.7,2.3-1.8v0c0-1.1-1.3-1.6-2.8-2
			c-1.8-0.5-3.7-1.1-3.7-3.2v0c0-1.9,1.6-3.2,3.8-3.2c1.4,0,2.9,0.5,4,1.2l-0.8,1.3c-1-0.7-2.2-1.1-3.3-1.1c-1.3,0-2.2,0.7-2.2,1.6
			v0c0,1.1,1.4,1.5,2.9,1.9c1.7,0.5,3.6,1.2,3.6,3.2v0c0,2.1-1.8,3.4-4,3.4C453.2-155.4,451.5-156,450.2-157z"/>
		<path class="st3" d="M460.8-157l0.8-1.2c1.2,0.9,2.6,1.4,3.9,1.4c1.3,0,2.3-0.7,2.3-1.8v0c0-1.1-1.3-1.6-2.8-2
			c-1.8-0.5-3.7-1.1-3.7-3.2v0c0-1.9,1.6-3.2,3.8-3.2c1.4,0,2.9,0.5,4,1.2l-0.8,1.3c-1-0.7-2.2-1.1-3.3-1.1c-1.3,0-2.2,0.7-2.2,1.6
			v0c0,1.1,1.4,1.5,2.9,1.9c1.7,0.5,3.6,1.2,3.6,3.2v0c0,2.1-1.8,3.4-4,3.4C463.9-155.4,462.1-156,460.8-157z"/>
		<path class="st3" d="M472.6-171.1h1.9v1.8h-1.9V-171.1z M472.7-166.8h1.7v11.2h-1.7V-166.8z"/>
		<path class="st3" d="M477.6-161.2L477.6-161.2c0-3.2,2.5-5.9,5.9-5.9c3.4,0,5.9,2.7,5.9,5.8v0c0,3.2-2.5,5.9-5.9,5.9
			C480.1-155.3,477.6-158,477.6-161.2z M487.6-161.2L487.6-161.2c0-2.5-1.8-4.4-4.2-4.4c-2.4,0-4.1,2-4.1,4.4v0
			c0,2.4,1.8,4.4,4.2,4.4C485.9-156.8,487.6-158.8,487.6-161.2z"/>
		<path class="st3" d="M492.4-166.8h1.7v2c0.7-1.2,1.9-2.2,3.9-2.2c2.7,0,4.3,1.8,4.3,4.5v7h-1.7v-6.6c0-2.1-1.1-3.4-3.1-3.4
			c-1.9,0-3.4,1.4-3.4,3.5v6.4h-1.7V-166.8z"/>
		<path class="st3" d="M505.6-157.9h2v2.3h-2V-157.9z"/>
	</g>
	<rect x="266.9" y="-195" class="st3" width="2" height="39.8"/>
</g>
<g id="logo_2_">
	<g>
		<polygon class="st0" points="45.8,-98.2 59.7,-98.2 68.3,-84.2 76.8,-98.2 90.8,-98.2 90.8,-58.2 77.5,-58.2 77.5,-78 68.3,-63.8 
			68,-63.8 58.8,-78 58.8,-58.2 45.8,-58.2 		"/>
		<g>
			<path class="st0" d="M130.4-98.2h15.3c15.9,0,23.8,7.8,23.8,19.7v0.1c0,11.8-8.1,20.2-24.3,20.2h-14.9V-98.2z M146-69.9
				c6.1,0,10.1-2.5,10.1-8.3v-0.1c0-5.8-3.9-8.3-10.1-8.3h-2.2v16.7H146z"/>
			<path class="st0" d="M0-78.6v-0.1c0-11.6,9.5-20.9,21.9-20.9c12.3,0,21.8,9.1,21.8,20.7v0.1c0,11.6-9.5,20.9-21.9,20.9
				S0-67,0-78.6 M30.2-78.6v-0.1c0-4.7-3.3-9-8.4-9c-5.1,0-8.3,4.2-8.3,8.9v0.1c0,4.7,3.3,9,8.4,9C27-69.7,30.2-73.9,30.2-78.6"/>
		</g>
		<polygon class="st0" points="127.7,-87.2 127.7,-98.2 93.6,-98.2 93.6,-58.2 127.7,-58.2 127.7,-69.2 104.6,-69.2 104.6,-73.5 
			124.3,-73.5 124.3,-83.2 104.6,-83.2 104.6,-87.2 		"/>
		<g>
			<path class="st0" d="M175.7-100.1c0.5,0.2,1,0.5,1.4,0.9c0.4,0.4,0.7,0.9,0.9,1.4c0.2,0.5,0.3,1.1,0.3,1.7c0,0.6-0.1,1.2-0.3,1.7
				c-0.2,0.5-0.5,1-0.9,1.4c-0.4,0.4-0.9,0.7-1.4,0.9c-0.5,0.2-1.1,0.3-1.7,0.3c-0.6,0-1.2-0.1-1.7-0.3c-0.5-0.2-1-0.5-1.4-0.9
				c-0.4-0.4-0.7-0.9-0.9-1.4c-0.2-0.5-0.3-1.1-0.3-1.7c0-0.6,0.1-1.2,0.3-1.7c0.2-0.5,0.5-1,0.9-1.4c0.4-0.4,0.9-0.7,1.4-0.9
				c0.5-0.2,1.1-0.3,1.7-0.3C174.6-100.4,175.2-100.3,175.7-100.1 M172.5-99.5c-0.5,0.2-0.9,0.5-1.2,0.8c-0.3,0.3-0.6,0.7-0.8,1.2
				c-0.2,0.5-0.3,1-0.3,1.5c0,0.5,0.1,1,0.3,1.5c0.2,0.5,0.4,0.9,0.8,1.2c0.3,0.3,0.7,0.6,1.2,0.8c0.5,0.2,0.9,0.3,1.5,0.3
				c0.5,0,1-0.1,1.5-0.3c0.5-0.2,0.9-0.5,1.2-0.8c0.3-0.3,0.6-0.7,0.8-1.2c0.2-0.5,0.3-1,0.3-1.5c0-0.5-0.1-1-0.3-1.5
				c-0.2-0.5-0.5-0.9-0.8-1.2c-0.3-0.3-0.7-0.6-1.2-0.8c-0.5-0.2-0.9-0.3-1.5-0.3C173.4-99.8,172.9-99.7,172.5-99.5 M172.3-93.4
				v-5.1h2c0.6,0,1,0.1,1.3,0.4c0.3,0.2,0.4,0.6,0.4,1c0,0.2,0,0.4-0.1,0.6c-0.1,0.2-0.2,0.3-0.3,0.4c-0.1,0.1-0.3,0.2-0.4,0.3
				c-0.2,0.1-0.3,0.1-0.5,0.1l1.5,2.3h-0.7l-1.4-2.3H173v2.3H172.3z M174.4-96.2c0.2,0,0.4,0,0.5-0.1c0.1-0.1,0.3-0.1,0.3-0.3
				c0.1-0.1,0.1-0.3,0.1-0.5c0-0.2,0-0.3-0.1-0.4c-0.1-0.1-0.2-0.2-0.3-0.3c-0.1-0.1-0.2-0.1-0.4-0.1c-0.1,0-0.3,0-0.5,0H173v1.8
				h0.8C174-96.2,174.2-96.2,174.4-96.2"/>
		</g>
		<polygon class="st0" points="193.3,-87.9 186.7,-86.4 184.6,-94.8 196.1,-98.1 204.1,-98.1 204.1,-58.4 193.3,-58.4 		"/>
	</g>
	<g>
		<path class="st0" d="M213.6-62.3c-3-3-4.9-7.5-4.9-15v-0.1c0-12.5,6.1-22.1,18.7-22.1c5.6,0,9.5,1.6,13.4,4.4l-5.2,7.9
			c-2.5-1.8-4.8-3-8-3c-4.7,0-7.1,3.5-7.6,8.6c2.1-1.6,4.7-3.1,8.7-3.1c7.1,0,13.3,4.5,13.3,12.5v0.1c0,9-7.2,14.5-16,14.5
			C220.2-57.7,216.5-59.4,213.6-62.3z M231-71.5v-0.1c0-2.9-2.2-5.2-5.7-5.2c-3.5,0-5.6,2.2-5.6,5.1v0.1c0,2.9,2.2,5.2,5.7,5.2
			S231-68.6,231-71.5z"/>
	</g>
</g>
<g>
	<g class="st1">
		<g class="st2">
			<polygon class="st3" points="50.5,-96.9 64.4,-96.9 73,-82.9 81.6,-96.9 95.5,-96.9 95.5,-56.9 82.2,-56.9 82.2,-76.8 73,-62.5 
				72.8,-62.5 63.6,-76.8 63.6,-56.9 50.5,-56.9 			"/>
			<g>
				<path class="st3" d="M135.1-96.9h15.3c15.9,0,23.8,7.8,23.8,19.7v0.1c0,11.8-8.1,20.2-24.3,20.2h-14.9V-96.9z M150.7-68.6
					c6.1,0,10.1-2.5,10.1-8.3V-77c0-5.8-3.9-8.3-10.1-8.3h-2.2v16.7H150.7z"/>
				<path class="st3" d="M4.7-77.3v-0.1c0-11.6,9.5-20.9,21.9-20.9c12.3,0,21.8,9.1,21.8,20.7v0.1c0,11.6-9.5,20.9-21.9,20.9
					S4.7-65.7,4.7-77.3 M34.9-77.3v-0.1c0-4.7-3.3-9-8.4-9c-5.1,0-8.3,4.2-8.3,8.9v0.1c0,4.7,3.3,9,8.4,9
					C31.7-68.4,34.9-72.7,34.9-77.3"/>
			</g>
			<polygon class="st3" points="132.5,-86 132.5,-96.9 98.4,-96.9 98.4,-56.9 132.5,-56.9 132.5,-67.9 109.4,-67.9 109.4,-72.3 
				129.1,-72.3 129.1,-81.9 109.4,-81.9 109.4,-86 			"/>
			<g>
				<path class="st3" d="M180.4-98.8c0.5,0.2,1,0.5,1.4,0.9c0.4,0.4,0.7,0.9,0.9,1.4c0.2,0.5,0.3,1.1,0.3,1.7c0,0.6-0.1,1.2-0.3,1.7
					c-0.2,0.5-0.5,1-0.9,1.4c-0.4,0.4-0.9,0.7-1.4,0.9c-0.5,0.2-1.1,0.3-1.7,0.3c-0.6,0-1.2-0.1-1.7-0.3c-0.5-0.2-1-0.5-1.4-0.9
					c-0.4-0.4-0.7-0.9-0.9-1.4c-0.2-0.5-0.3-1.1-0.3-1.7c0-0.6,0.1-1.2,0.3-1.7c0.2-0.5,0.5-1,0.9-1.4c0.4-0.4,0.9-0.7,1.4-0.9
					c0.5-0.2,1.1-0.3,1.7-0.3C179.3-99.1,179.9-99,180.4-98.8 M177.2-98.2c-0.5,0.2-0.9,0.5-1.2,0.8c-0.3,0.3-0.6,0.7-0.8,1.2
					c-0.2,0.5-0.3,1-0.3,1.5c0,0.5,0.1,1,0.3,1.5c0.2,0.5,0.4,0.9,0.8,1.2c0.3,0.3,0.7,0.6,1.2,0.8c0.5,0.2,0.9,0.3,1.5,0.3
					c0.5,0,1-0.1,1.5-0.3c0.5-0.2,0.9-0.5,1.2-0.8c0.3-0.3,0.6-0.7,0.8-1.2c0.2-0.5,0.3-1,0.3-1.5c0-0.5-0.1-1-0.3-1.5
					c-0.2-0.5-0.5-0.9-0.8-1.2c-0.3-0.3-0.7-0.6-1.2-0.8c-0.5-0.2-0.9-0.3-1.5-0.3C178.2-98.5,177.7-98.4,177.2-98.2 M177.1-92.1
					v-5.1h2c0.6,0,1,0.1,1.3,0.4c0.3,0.2,0.4,0.6,0.4,1c0,0.2,0,0.4-0.1,0.6c-0.1,0.2-0.2,0.3-0.3,0.4c-0.1,0.1-0.3,0.2-0.4,0.3
					c-0.2,0.1-0.3,0.1-0.5,0.1l1.5,2.3h-0.7l-1.4-2.3h-1.1v2.3H177.1z M179.1-95c0.2,0,0.4,0,0.5-0.1c0.1-0.1,0.3-0.1,0.3-0.3
					c0.1-0.1,0.1-0.3,0.1-0.5c0-0.2,0-0.3-0.1-0.4c-0.1-0.1-0.2-0.2-0.3-0.3c-0.1-0.1-0.2-0.1-0.4-0.1c-0.1,0-0.3,0-0.5,0h-1.2v1.8
					h0.8C178.7-94.9,178.9-95,179.1-95"/>
			</g>
			<polygon class="st3" points="198.1,-86.6 191.4,-85.1 189.4,-93.5 200.9,-96.8 208.8,-96.8 208.8,-57.2 198.1,-57.2 			"/>
		</g>
		<g class="st2">
			<path class="st3" d="M218.4-61c-3-3-4.9-7.5-4.9-15v-0.1c0-12.5,6.1-22.1,18.7-22.1c5.6,0,9.5,1.6,13.4,4.4l-5.2,7.9
				c-2.5-1.8-4.8-3-8-3c-4.7,0-7.1,3.5-7.6,8.6c2.1-1.6,4.7-3.1,8.7-3.1c7.1,0,13.3,4.5,13.3,12.5v0.1c0,9-7.2,14.5-16,14.5
				C225-56.4,221.2-58.1,218.4-61z M235.8-70.2v-0.1c0-2.9-2.2-5.2-5.7-5.2c-3.5,0-5.6,2.2-5.6,5.1v0.1c0,2.9,2.2,5.2,5.7,5.2
				S235.8-67.3,235.8-70.2z"/>
		</g>
	</g>
	<rect x="266.9" y="-96.4" class="st5" width="2" height="39.8"/>
</g>
<g>
	<path class="st6" d="M291.2-96.9h5.5c2.3,0,3.8,0.5,4.8,1.5c0.8,0.8,1.2,1.8,1.2,3.1c0,1.5-0.5,2.7-1.4,3.6c-0.8,0.8-2,1.5-3.5,1.8
		l2.6,5.2h-3.8l-2.4-4.9h-2.5l-1.3,4.9h-3.4L291.2-96.9z M295.5-89.5c1.3,0,2.4-0.3,3.1-1c0.4-0.4,0.6-0.9,0.6-1.5
		c0-0.5-0.2-0.9-0.5-1.2c-0.4-0.4-1.2-0.6-2.2-0.6h-2.8l-1.2,4.4H295.5z"/>
	<path class="st6" d="M306.6-86.4c0.1,1.4,0.9,2.3,2.7,2.3c0.9,0,1.6-0.3,2.6-0.9l1.5,2c-1,0.9-2.5,1.5-4.5,1.5
		c-3.4,0-5.4-2-5.4-5.2c0-3.4,2.7-7,6.9-7c3,0,4.8,2,4.8,4.5c0,0.8-0.2,1.8-0.6,2.7H306.6z M306.9-88.4h5.1c0.1-0.2,0.1-0.5,0.1-0.8
		c0-1-0.6-1.7-1.9-1.7C308.7-90.9,307.5-89.9,306.9-88.4z"/>
	<path class="st6" d="M318.9-93.3h3.3l-0.3,1.2c0.8-0.7,1.9-1.4,3.2-1.4c2.1,0,3.4,1.3,3.4,3.4c0,0.7-0.2,1.5-0.4,2.2l-1.7,6.3h-3.3
		l1.7-6.4c0.1-0.3,0.2-0.8,0.2-1c0-0.9-0.6-1.4-1.6-1.4c-1.3,0-2.2,0.9-2.5,2.3l-1.8,6.5h-3.3L318.9-93.3z"/>
	<path class="st6" d="M333.3-86.4c0.1,1.4,0.9,2.3,2.7,2.3c0.9,0,1.6-0.3,2.6-0.9l1.5,2c-1,0.9-2.5,1.5-4.5,1.5
		c-3.4,0-5.4-2-5.4-5.2c0-3.4,2.7-7,6.9-7c3,0,4.8,2,4.8,4.5c0,0.8-0.2,1.8-0.6,2.7H333.3z M333.6-88.4h5.1c0.1-0.2,0.1-0.5,0.1-0.8
		c0-1-0.6-1.7-1.9-1.7C335.4-90.9,334.2-89.9,333.6-88.4z"/>
	<path class="st6" d="M343.9-93.3h3.4l0,7.1l4.1-7.1h2.9l0.3,7.1l3.8-7.1h3.3l-6.8,11.7h-3l-0.3-7.2l-4.2,7.2h-3L343.9-93.3z"/>
	<path class="st7" d="M368.4-78.7L369-80c0.5,0.3,1,0.4,1.8,0.4c1,0,1.6-0.5,2.3-2.1l-5.1-11.2h1.8l4.1,9.4l3.6-9.4h1.8l-4.7,11.6
		c-1,2.3-2,3.2-3.7,3.2C369.9-78.1,369.2-78.3,368.4-78.7z"/>
	<path class="st7" d="M380.6-87.3L380.6-87.3c0-3.2,2.5-5.9,5.9-5.9c3.4,0,5.9,2.7,5.9,5.8v0c0,3.2-2.5,5.9-5.9,5.9
		C383-81.4,380.6-84.1,380.6-87.3z M390.6-87.3L390.6-87.3c0-2.5-1.8-4.4-4.2-4.4c-2.4,0-4.1,2-4.1,4.4v0c0,2.4,1.8,4.4,4.2,4.4
		C388.9-82.9,390.6-84.9,390.6-87.3z"/>
	<path class="st7" d="M395.1-85.9v-7h1.7v6.6c0,2.1,1.1,3.4,3.1,3.4c1.9,0,3.4-1.4,3.4-3.5v-6.4h1.7v11.2h-1.7v-2
		c-0.8,1.2-1.9,2.2-3.9,2.2C396.7-81.4,395.1-83.3,395.1-85.9z"/>
	<path class="st7" d="M408.7-92.9h1.7v2.9c0.8-1.9,2.5-3.2,4.6-3.1v1.8h-0.1c-2.5,0-4.5,1.8-4.5,5.2v4.5h-1.7V-92.9z"/>
	<path class="st7" d="M424.1-92.9h1.7v2.3c0.9-1.3,2.2-2.5,4.3-2.5c2.7,0,5.4,2.1,5.4,5.8v0c0,3.7-2.7,5.9-5.4,5.9
		c-2.1,0-3.4-1.1-4.3-2.4v5.6h-1.7V-92.9z M433.7-87.3L433.7-87.3c0-2.7-1.8-4.4-4-4.4c-2.1,0-4.1,1.8-4.1,4.3v0
		c0,2.6,2,4.4,4.1,4.4C431.9-82.9,433.7-84.6,433.7-87.3z"/>
	<path class="st7" d="M438.3-85.9v-7h1.7v6.6c0,2.1,1.1,3.4,3.1,3.4c1.9,0,3.4-1.4,3.4-3.5v-6.4h1.7v11.2h-1.7v-2
		c-0.8,1.2-1.9,2.2-3.9,2.2C439.9-81.4,438.3-83.3,438.3-85.9z"/>
	<path class="st7" d="M451.9-92.9h1.7v2.9c0.8-1.9,2.5-3.2,4.6-3.1v1.8h-0.1c-2.5,0-4.5,1.8-4.5,5.2v4.5h-1.7V-92.9z"/>
	<path class="st7" d="M460.7-92.9h1.7v2.3c0.9-1.3,2.2-2.5,4.3-2.5c2.7,0,5.4,2.1,5.4,5.8v0c0,3.7-2.7,5.9-5.4,5.9
		c-2.1,0-3.4-1.1-4.3-2.4v5.6h-1.7V-92.9z M470.4-87.3L470.4-87.3c0-2.7-1.8-4.4-4-4.4c-2.1,0-4.1,1.8-4.1,4.3v0
		c0,2.6,2,4.4,4.1,4.4C468.6-82.9,470.4-84.6,470.4-87.3z"/>
	<path class="st7" d="M474.5-87.3L474.5-87.3c0-3.2,2.5-5.9,5.9-5.9c3.4,0,5.9,2.7,5.9,5.8v0c0,3.2-2.5,5.9-5.9,5.9
		C477-81.4,474.5-84.1,474.5-87.3z M484.5-87.3L484.5-87.3c0-2.5-1.8-4.4-4.2-4.4c-2.4,0-4.1,2-4.1,4.4v0c0,2.4,1.8,4.4,4.2,4.4
		C482.8-82.9,484.5-84.9,484.5-87.3z"/>
	<path class="st7" d="M488.3-83.1l0.8-1.2c1.2,0.9,2.6,1.4,3.9,1.4c1.3,0,2.3-0.7,2.3-1.8v0c0-1.1-1.3-1.6-2.8-2
		c-1.8-0.5-3.7-1.1-3.7-3.2v0c0-1.9,1.6-3.2,3.8-3.2c1.4,0,2.9,0.5,4,1.2l-0.8,1.3c-1-0.7-2.2-1.1-3.3-1.1c-1.3,0-2.2,0.7-2.2,1.6v0
		c0,1.1,1.4,1.5,2.9,1.9c1.7,0.5,3.6,1.2,3.6,3.2v0c0,2.1-1.8,3.4-4,3.4C491.4-81.5,489.6-82.1,488.3-83.1z"/>
	<path class="st7" d="M505.1-82.9c1.5,0,2.6-0.6,3.5-1.6l1,0.9c-1.1,1.3-2.5,2.1-4.6,2.1c-3.1,0-5.6-2.4-5.6-5.9
		c0-3.3,2.3-5.9,5.4-5.9c3.3,0,5.2,2.7,5.2,6c0,0.2,0,0.3,0,0.6h-8.9C501.3-84.2,503.1-82.9,505.1-82.9z M508.3-88
		c-0.2-2-1.4-3.8-3.6-3.8c-1.9,0-3.4,1.6-3.7,3.8H508.3z"/>
	<path class="st7" d="M512.6-84h2v2.3h-2V-84z"/>
	<path class="st6" d="M291.2-72.2h5.5c2.3,0,3.8,0.5,4.8,1.5c0.8,0.8,1.2,1.8,1.2,3.1c0,1.5-0.5,2.7-1.4,3.6c-0.8,0.8-2,1.5-3.5,1.8
		l2.6,5.2h-3.8l-2.4-4.9h-2.5l-1.3,4.9h-3.4L291.2-72.2z M295.5-64.8c1.3,0,2.4-0.3,3.1-1c0.4-0.4,0.6-0.9,0.6-1.5
		c0-0.5-0.2-0.9-0.5-1.2c-0.4-0.4-1.2-0.6-2.2-0.6h-2.8l-1.2,4.4H295.5z"/>
	<path class="st6" d="M306.6-61.6c0.1,1.4,0.9,2.3,2.7,2.3c0.9,0,1.6-0.3,2.6-0.9l1.5,2c-1,0.9-2.5,1.5-4.5,1.5
		c-3.4,0-5.4-2-5.4-5.2c0-3.4,2.7-7,6.9-7c3,0,4.8,2,4.8,4.5c0,0.8-0.2,1.8-0.6,2.7H306.6z M306.9-63.7h5.1c0.1-0.2,0.1-0.5,0.1-0.8
		c0-1-0.6-1.7-1.9-1.7C308.7-66.2,307.5-65.2,306.9-63.7z"/>
	<path class="st6" d="M318.9-68.6h3.3l-0.3,1.2c0.8-0.7,1.9-1.4,3.2-1.4c2.1,0,3.4,1.3,3.4,3.4c0,0.7-0.2,1.5-0.4,2.2l-1.7,6.3h-3.3
		l1.7-6.4c0.1-0.3,0.2-0.8,0.2-1c0-0.9-0.6-1.4-1.6-1.4c-1.3,0-2.2,0.9-2.5,2.3l-1.8,6.5h-3.3L318.9-68.6z"/>
	<path class="st6" d="M333.3-61.6c0.1,1.4,0.9,2.3,2.7,2.3c0.9,0,1.6-0.3,2.6-0.9l1.5,2c-1,0.9-2.5,1.5-4.5,1.5
		c-3.4,0-5.4-2-5.4-5.2c0-3.4,2.7-7,6.9-7c3,0,4.8,2,4.8,4.5c0,0.8-0.2,1.8-0.6,2.7H333.3z M333.6-63.7h5.1c0.1-0.2,0.1-0.5,0.1-0.8
		c0-1-0.6-1.7-1.9-1.7C335.4-66.2,334.2-65.2,333.6-63.7z"/>
	<path class="st6" d="M343.9-68.6h3.4l0,7.1l4.1-7.1h2.9l0.3,7.1l3.8-7.1h3.3l-6.8,11.7h-3l-0.3-7.2l-4.2,7.2h-3L343.9-68.6z"/>
	<path class="st7" d="M368.4-54l0.6-1.3c0.5,0.3,1,0.4,1.8,0.4c1,0,1.6-0.5,2.3-2.1l-5.1-11.2h1.8l4.1,9.4l3.6-9.4h1.8l-4.7,11.6
		c-1,2.3-2,3.2-3.7,3.2C369.9-53.4,369.2-53.6,368.4-54z"/>
	<path class="st7" d="M380.6-62.5L380.6-62.5c0-3.2,2.5-5.9,5.9-5.9c3.4,0,5.9,2.7,5.9,5.8v0c0,3.2-2.5,5.9-5.9,5.9
		C383-56.7,380.6-59.3,380.6-62.5z M390.6-62.5L390.6-62.5c0-2.5-1.8-4.4-4.2-4.4c-2.4,0-4.1,2-4.1,4.4v0c0,2.4,1.8,4.4,4.2,4.4
		C388.9-58.2,390.6-60.1,390.6-62.5z"/>
	<path class="st7" d="M395.1-61.2v-7h1.7v6.6c0,2.1,1.1,3.4,3.1,3.4c1.9,0,3.4-1.4,3.4-3.5v-6.4h1.7v11.2h-1.7v-2
		c-0.8,1.2-1.9,2.2-3.9,2.2C396.7-56.7,395.1-58.5,395.1-61.2z"/>
	<path class="st7" d="M408.7-68.2h1.7v2.9c0.8-1.9,2.5-3.2,4.6-3.1v1.8h-0.1c-2.5,0-4.5,1.8-4.5,5.2v4.5h-1.7V-68.2z"/>
	<path class="st7" d="M424.1-68.2h1.7v2.3c0.9-1.3,2.2-2.5,4.3-2.5c2.7,0,5.4,2.1,5.4,5.8v0c0,3.7-2.7,5.9-5.4,5.9
		c-2.1,0-3.4-1.1-4.3-2.4v5.6h-1.7V-68.2z M433.7-62.5L433.7-62.5c0-2.7-1.8-4.4-4-4.4c-2.1,0-4.1,1.8-4.1,4.3v0
		c0,2.6,2,4.4,4.1,4.4C431.9-58.2,433.7-59.8,433.7-62.5z"/>
	<path class="st7" d="M437.7-60.2L437.7-60.2c0-2.5,2-3.7,4.8-3.7c1.4,0,2.4,0.2,3.4,0.5v-0.3c0-2-1.2-3-3.3-3
		c-1.3,0-2.4,0.3-3.4,0.8l-0.5-1.4c1.2-0.6,2.4-1,4.1-1c1.6,0,2.8,0.4,3.6,1.2c0.8,0.8,1.2,1.9,1.2,3.3v6.9h-1.7v-1.7
		c-0.8,1-2.1,1.9-4,1.9C439.8-56.7,437.7-57.9,437.7-60.2z M445.9-61.1v-1c-0.8-0.2-1.9-0.5-3.3-0.5c-2.1,0-3.3,0.9-3.3,2.3v0
		c0,1.4,1.3,2.2,2.8,2.2C444.3-58.1,445.9-59.3,445.9-61.1z"/>
	<path class="st7" d="M450.2-58.4l0.8-1.2c1.2,0.9,2.6,1.4,3.9,1.4c1.3,0,2.3-0.7,2.3-1.8v0c0-1.1-1.3-1.6-2.8-2
		c-1.8-0.5-3.7-1.1-3.7-3.2v0c0-1.9,1.6-3.2,3.8-3.2c1.4,0,2.9,0.5,4,1.2l-0.8,1.3c-1-0.7-2.2-1.1-3.3-1.1c-1.3,0-2.2,0.7-2.2,1.6v0
		c0,1.1,1.4,1.5,2.9,1.9c1.7,0.5,3.6,1.2,3.6,3.2v0c0,2.1-1.8,3.4-4,3.4C453.2-56.7,451.5-57.4,450.2-58.4z"/>
	<path class="st7" d="M460.8-58.4l0.8-1.2c1.2,0.9,2.6,1.4,3.9,1.4c1.3,0,2.3-0.7,2.3-1.8v0c0-1.1-1.3-1.6-2.8-2
		c-1.8-0.5-3.7-1.1-3.7-3.2v0c0-1.9,1.6-3.2,3.8-3.2c1.4,0,2.9,0.5,4,1.2l-0.8,1.3c-1-0.7-2.2-1.1-3.3-1.1c-1.3,0-2.2,0.7-2.2,1.6v0
		c0,1.1,1.4,1.5,2.9,1.9c1.7,0.5,3.6,1.2,3.6,3.2v0c0,2.1-1.8,3.4-4,3.4C463.9-56.7,462.1-57.4,460.8-58.4z"/>
	<path class="st7" d="M472.6-72.5h1.9v1.8h-1.9V-72.5z M472.7-68.2h1.7v11.2h-1.7V-68.2z"/>
	<path class="st7" d="M477.6-62.5L477.6-62.5c0-3.2,2.5-5.9,5.9-5.9c3.4,0,5.9,2.7,5.9,5.8v0c0,3.2-2.5,5.9-5.9,5.9
		C480.1-56.7,477.6-59.3,477.6-62.5z M487.6-62.5L487.6-62.5c0-2.5-1.8-4.4-4.2-4.4c-2.4,0-4.1,2-4.1,4.4v0c0,2.4,1.8,4.4,4.2,4.4
		C485.9-58.2,487.6-60.1,487.6-62.5z"/>
	<path class="st7" d="M492.4-68.2h1.7v2c0.7-1.2,1.9-2.2,3.9-2.2c2.7,0,4.3,1.8,4.3,4.5v7h-1.7v-6.6c0-2.1-1.1-3.4-3.1-3.4
		c-1.9,0-3.4,1.4-3.4,3.5v6.4h-1.7V-68.2z"/>
	<path class="st7" d="M505.6-59.2h2v2.3h-2V-59.2z"/>
</g>
<g id="logo_3_">
	<g>
		<polygon class="st3" points="45.8,2.2 59.7,2.2 68.3,16.2 76.8,2.2 90.8,2.2 90.8,42.2 77.5,42.2 77.5,22.3 68.3,36.6 68,36.6 
			58.8,22.3 58.8,42.2 45.8,42.2 		"/>
		<g>
			<path class="st3" d="M130.4,2.2h15.3c15.9,0,23.8,7.8,23.8,19.7V22c0,11.8-8.1,20.2-24.3,20.2h-14.9V2.2z M146,30.5
				c6.1,0,10.1-2.5,10.1-8.3v-0.1c0-5.8-3.9-8.3-10.1-8.3h-2.2v16.7H146z"/>
			<path class="st3" d="M0,21.8v-0.1C0,10.1,9.5,0.8,21.9,0.8c12.3,0,21.8,9.1,21.8,20.7v0.1c0,11.6-9.5,20.9-21.9,20.9
				S0,33.4,0,21.8 M30.2,21.8v-0.1c0-4.7-3.3-9-8.4-9c-5.1,0-8.3,4.2-8.3,8.9v0.1c0,4.7,3.3,9,8.4,9C27,30.7,30.2,26.5,30.2,21.8"/>
		</g>
		<polygon class="st3" points="127.7,13.2 127.7,2.2 93.6,2.2 93.6,42.2 127.7,42.2 127.7,31.2 104.6,31.2 104.6,26.9 124.3,26.9 
			124.3,17.2 104.6,17.2 104.6,13.2 		"/>
		<g>
			<path class="st3" d="M175.7,0.3c0.5,0.2,1,0.5,1.4,0.9c0.4,0.4,0.7,0.9,0.9,1.4c0.2,0.5,0.3,1.1,0.3,1.7c0,0.6-0.1,1.2-0.3,1.7
				c-0.2,0.5-0.5,1-0.9,1.4c-0.4,0.4-0.9,0.7-1.4,0.9c-0.5,0.2-1.1,0.3-1.7,0.3c-0.6,0-1.2-0.1-1.7-0.3c-0.5-0.2-1-0.5-1.4-0.9
				c-0.4-0.4-0.7-0.9-0.9-1.4c-0.2-0.5-0.3-1.1-0.3-1.7c0-0.6,0.1-1.2,0.3-1.7c0.2-0.5,0.5-1,0.9-1.4c0.4-0.4,0.9-0.7,1.4-0.9
				c0.5-0.2,1.1-0.3,1.7-0.3C174.6,0,175.2,0.1,175.7,0.3 M172.5,0.9c-0.5,0.2-0.9,0.5-1.2,0.8c-0.3,0.3-0.6,0.7-0.8,1.2
				c-0.2,0.5-0.3,1-0.3,1.5c0,0.5,0.1,1,0.3,1.5c0.2,0.5,0.4,0.9,0.8,1.2c0.3,0.3,0.7,0.6,1.2,0.8c0.5,0.2,0.9,0.3,1.5,0.3
				c0.5,0,1-0.1,1.5-0.3c0.5-0.2,0.9-0.5,1.2-0.8c0.3-0.3,0.6-0.7,0.8-1.2c0.2-0.5,0.3-1,0.3-1.5c0-0.5-0.1-1-0.3-1.5
				c-0.2-0.5-0.5-0.9-0.8-1.2c-0.3-0.3-0.7-0.6-1.2-0.8s-0.9-0.3-1.5-0.3C173.4,0.6,172.9,0.7,172.5,0.9 M172.3,7V1.9h2
				c0.6,0,1,0.1,1.3,0.4c0.3,0.2,0.4,0.6,0.4,1c0,0.2,0,0.4-0.1,0.6c-0.1,0.2-0.2,0.3-0.3,0.4c-0.1,0.1-0.3,0.2-0.4,0.3
				c-0.2,0.1-0.3,0.1-0.5,0.1l1.5,2.3h-0.7L174,4.7H173V7H172.3z M174.4,4.1c0.2,0,0.4,0,0.5-0.1c0.1-0.1,0.3-0.1,0.3-0.3
				c0.1-0.1,0.1-0.3,0.1-0.5c0-0.2,0-0.3-0.1-0.4c-0.1-0.1-0.2-0.2-0.3-0.3c-0.1-0.1-0.2-0.1-0.4-0.1c-0.1,0-0.3,0-0.5,0H173v1.8
				h0.8C174,4.2,174.2,4.2,174.4,4.1"/>
		</g>
		<polygon class="st3" points="193.3,12.5 186.7,14 184.6,5.6 196.1,2.3 204.1,2.3 204.1,42 193.3,42 		"/>
	</g>
	<g>
		<path class="st3" d="M213.6,38.1c-3-3-4.9-7.5-4.9-15V23c0-12.5,6.1-22.1,18.7-22.1c5.6,0,9.5,1.6,13.4,4.4l-5.2,7.9
			c-2.5-1.8-4.8-3-8-3c-4.7,0-7.1,3.5-7.6,8.6c2.1-1.6,4.7-3.1,8.7-3.1c7.1,0,13.3,4.5,13.3,12.5v0.1c0,9-7.2,14.5-16,14.5
			C220.2,42.7,216.5,41,213.6,38.1z M231,28.9v-0.1c0-2.9-2.2-5.2-5.7-5.2c-3.5,0-5.6,2.2-5.6,5.1v0.1c0,2.9,2.2,5.2,5.7,5.2
			S231,31.8,231,28.9z"/>
	</g>
</g>
<g>
</g>
<g>
</g>
<g>
</g>
<g>
</g>
<g>
</g>
<g>
</g>
</svg>
