<?xml version="1.0" encoding="utf-8"?>
<!-- Generator: Adobe Illustrator 19.2.0, SVG Export Plug-In . SVG Version: 6.00 Build 0)  -->
<svg version="1.1" id="Layer_1" xmlns="http://www.w3.org/2000/svg" xmlns:xlink="http://www.w3.org/1999/xlink" x="0px" y="0px"
	 viewBox="0 0 514.6 47" style="enable-background:new 0 0 514.6 47;" xml:space="preserve">
<style type="text/css">
	.st0{fill:#00B0B9;}
	.st1{display:none;}
	.st2{display:inline;}
	.st3{fill:#FFFFFF;}
	.st4{fill:#BBBDBF;}
	.st5{fill:#404041;}
	.st6{fill:#58595B;}
</style>
<g id="logo_2_">
	<g>
		<polygon class="st0" points="45.8,2.2 59.7,2.2 68.3,16.2 76.8,2.2 90.8,2.2 90.8,42.2 77.5,42.2 77.5,22.3 68.3,36.6 68,36.6 
			58.8,22.3 58.8,42.2 45.8,42.2 		"/>
		<g>
			<path class="st0" d="M130.4,2.2h15.3c15.9,0,23.8,7.8,23.8,19.7V22c0,11.8-8.1,20.2-24.3,20.2h-14.9V2.2z M146,30.5
				c6.1,0,10.1-2.5,10.1-8.3v-0.1c0-5.8-3.9-8.3-10.1-8.3h-2.2v16.7H146z"/>
			<path class="st0" d="M0,21.8v-0.1C0,10.1,9.5,0.8,21.9,0.8c12.3,0,21.8,9.1,21.8,20.7v0.1c0,11.6-9.5,20.9-21.9,20.9
				S0,33.4,0,21.8 M30.2,21.8v-0.1c0-4.7-3.3-9-8.4-9c-5.1,0-8.3,4.2-8.3,8.9v0.1c0,4.7,3.3,9,8.4,9C27,30.7,30.2,26.5,30.2,21.8"/>
		</g>
		<polygon class="st0" points="127.7,13.2 127.7,2.2 93.6,2.2 93.6,42.2 127.7,42.2 127.7,31.2 104.6,31.2 104.6,26.9 124.3,26.9 
			124.3,17.2 104.6,17.2 104.6,13.2 		"/>
		<g>
			<path class="st0" d="M175.7,0.3c0.5,0.2,1,0.5,1.4,0.9c0.4,0.4,0.7,0.9,0.9,1.4c0.2,0.5,0.3,1.1,0.3,1.7c0,0.6-0.1,1.2-0.3,1.7
				c-0.2,0.5-0.5,1-0.9,1.4c-0.4,0.4-0.9,0.7-1.4,0.9c-0.5,0.2-1.1,0.3-1.7,0.3c-0.6,0-1.2-0.1-1.7-0.3c-0.5-0.2-1-0.5-1.4-0.9
				c-0.4-0.4-0.7-0.9-0.9-1.4c-0.2-0.5-0.3-1.1-0.3-1.7c0-0.6,0.1-1.2,0.3-1.7c0.2-0.5,0.5-1,0.9-1.4c0.4-0.4,0.9-0.7,1.4-0.9
				c0.5-0.2,1.1-0.3,1.7-0.3C174.6,0,175.2,0.1,175.7,0.3 M172.5,0.9c-0.5,0.2-0.9,0.5-1.2,0.8c-0.3,0.3-0.6,0.7-0.8,1.2
				c-0.2,0.5-0.3,1-0.3,1.5c0,0.5,0.1,1,0.3,1.5c0.2,0.5,0.4,0.9,0.8,1.2c0.3,0.3,0.7,0.6,1.2,0.8c0.5,0.2,0.9,0.3,1.5,0.3
				c0.5,0,1-0.1,1.5-0.3c0.5-0.2,0.9-0.5,1.2-0.8c0.3-0.3,0.6-0.7,0.8-1.2c0.2-0.5,0.3-1,0.3-1.5c0-0.5-0.1-1-0.3-1.5
				c-0.2-0.5-0.5-0.9-0.8-1.2c-0.3-0.3-0.7-0.6-1.2-0.8s-0.9-0.3-1.5-0.3C173.4,0.6,172.9,0.7,172.5,0.9 M172.3,7V1.9h2
				c0.6,0,1,0.1,1.3,0.4c0.3,0.2,0.4,0.6,0.4,1c0,0.2,0,0.4-0.1,0.6c-0.1,0.2-0.2,0.3-0.3,0.4c-0.1,0.1-0.3,0.2-0.4,0.3
				c-0.2,0.1-0.3,0.1-0.5,0.1l1.5,2.3h-0.7L174,4.7H173V7H172.3z M174.4,4.1c0.2,0,0.4,0,0.5-0.1c0.1-0.1,0.3-0.1,0.3-0.3
				c0.1-0.1,0.1-0.3,0.1-0.5c0-0.2,0-0.3-0.1-0.4c-0.1-0.1-0.2-0.2-0.3-0.3c-0.1-0.1-0.2-0.1-0.4-0.1c-0.1,0-0.3,0-0.5,0H173v1.8
				h0.8C174,4.2,174.2,4.2,174.4,4.1"/>
		</g>
		<polygon class="st0" points="193.3,12.5 186.7,14 184.6,5.6 196.1,2.3 204.1,2.3 204.1,42 193.3,42 		"/>
	</g>
	<g>
		<path class="st0" d="M213.6,38.1c-3-3-4.9-7.5-4.9-15V23c0-12.5,6.1-22.1,18.7-22.1c5.6,0,9.5,1.6,13.4,4.4l-5.2,7.9
			c-2.5-1.8-4.8-3-8-3c-4.7,0-7.1,3.5-7.6,8.6c2.1-1.6,4.7-3.1,8.7-3.1c7.1,0,13.3,4.5,13.3,12.5v0.1c0,9-7.2,14.5-16,14.5
			C220.2,42.7,216.5,41,213.6,38.1z M231,28.9v-0.1c0-2.9-2.2-5.2-5.7-5.2c-3.5,0-5.6,2.2-5.6,5.1v0.1c0,2.9,2.2,5.2,5.7,5.2
			S231,31.8,231,28.9z"/>
	</g>
</g>
<g>
	<g class="st1">
		<g class="st2">
			<polygon class="st3" points="50.5,3.5 64.4,3.5 73,17.5 81.6,3.5 95.5,3.5 95.5,43.5 82.2,43.5 82.2,23.6 73,37.9 72.8,37.9 
				63.6,23.6 63.6,43.5 50.5,43.5 			"/>
			<g>
				<path class="st3" d="M135.1,3.5h15.3c15.9,0,23.8,7.8,23.8,19.7v0.1c0,11.8-8.1,20.2-24.3,20.2h-14.9V3.5z M150.7,31.8
					c6.1,0,10.1-2.5,10.1-8.3v-0.1c0-5.8-3.9-8.3-10.1-8.3h-2.2v16.7H150.7z"/>
				<path class="st3" d="M4.7,23.1v-0.1c0-11.6,9.5-20.9,21.9-20.9c12.3,0,21.8,9.1,21.8,20.7v0.1c0,11.6-9.5,20.9-21.9,20.9
					S4.7,34.7,4.7,23.1 M34.9,23.1v-0.1c0-4.7-3.3-9-8.4-9c-5.1,0-8.3,4.2-8.3,8.9v0.1c0,4.7,3.3,9,8.4,9
					C31.7,32,34.9,27.7,34.9,23.1"/>
			</g>
			<polygon class="st3" points="132.5,14.4 132.5,3.5 98.4,3.5 98.4,43.5 132.5,43.5 132.5,32.5 109.4,32.5 109.4,28.1 129.1,28.1 
				129.1,18.5 109.4,18.5 109.4,14.4 			"/>
			<g>
				<path class="st3" d="M180.4,1.6c0.5,0.2,1,0.5,1.4,0.9c0.4,0.4,0.7,0.9,0.9,1.4c0.2,0.5,0.3,1.1,0.3,1.7c0,0.6-0.1,1.2-0.3,1.7
					c-0.2,0.5-0.5,1-0.9,1.4c-0.4,0.4-0.9,0.7-1.4,0.9c-0.5,0.2-1.1,0.3-1.7,0.3c-0.6,0-1.2-0.1-1.7-0.3c-0.5-0.2-1-0.5-1.4-0.9
					c-0.4-0.4-0.7-0.9-0.9-1.4c-0.2-0.5-0.3-1.1-0.3-1.7c0-0.6,0.1-1.2,0.3-1.7c0.2-0.5,0.5-1,0.9-1.4c0.4-0.4,0.9-0.7,1.4-0.9
					c0.5-0.2,1.1-0.3,1.7-0.3C179.3,1.3,179.9,1.4,180.4,1.6 M177.2,2.2c-0.5,0.2-0.9,0.5-1.2,0.8c-0.3,0.3-0.6,0.7-0.8,1.2
					c-0.2,0.5-0.3,1-0.3,1.5c0,0.5,0.1,1,0.3,1.5c0.2,0.5,0.4,0.9,0.8,1.2c0.3,0.3,0.7,0.6,1.2,0.8c0.5,0.2,0.9,0.3,1.5,0.3
					c0.5,0,1-0.1,1.5-0.3c0.5-0.2,0.9-0.5,1.2-0.8c0.3-0.3,0.6-0.7,0.8-1.2c0.2-0.5,0.3-1,0.3-1.5c0-0.5-0.1-1-0.3-1.5
					c-0.2-0.5-0.5-0.9-0.8-1.2c-0.3-0.3-0.7-0.6-1.2-0.8s-0.9-0.3-1.5-0.3C178.2,1.9,177.7,2,177.2,2.2 M177.1,8.2V3.1h2
					c0.6,0,1,0.1,1.3,0.4c0.3,0.2,0.4,0.6,0.4,1c0,0.2,0,0.4-0.1,0.6c-0.1,0.2-0.2,0.3-0.3,0.4c-0.1,0.1-0.3,0.2-0.4,0.3
					c-0.2,0.1-0.3,0.1-0.5,0.1l1.5,2.3h-0.7L178.8,6h-1.1v2.3H177.1z M179.1,5.4c0.2,0,0.4,0,0.5-0.1c0.1-0.1,0.3-0.1,0.3-0.3
					c0.1-0.1,0.1-0.3,0.1-0.5c0-0.2,0-0.3-0.1-0.4c-0.1-0.1-0.2-0.2-0.3-0.3c-0.1-0.1-0.2-0.1-0.4-0.1c-0.1,0-0.3,0-0.5,0h-1.2v1.8
					h0.8C178.7,5.4,178.9,5.4,179.1,5.4"/>
			</g>
			<polygon class="st3" points="198.1,13.8 191.4,15.3 189.4,6.9 200.9,3.6 208.8,3.6 208.8,43.2 198.1,43.2 			"/>
		</g>
		<g class="st2">
			<path class="st3" d="M218.4,39.4c-3-3-4.9-7.5-4.9-15v-0.1c0-12.5,6.1-22.1,18.7-22.1c5.6,0,9.5,1.6,13.4,4.4l-5.2,7.9
				c-2.5-1.8-4.8-3-8-3c-4.7,0-7.1,3.5-7.6,8.6c2.1-1.6,4.7-3.1,8.7-3.1c7.1,0,13.3,4.5,13.3,12.5v0.1c0,9-7.2,14.5-16,14.5
				C225,44,221.2,42.3,218.4,39.4z M235.8,30.2V30c0-2.9-2.2-5.2-5.7-5.2c-3.5,0-5.6,2.2-5.6,5.1v0.1c0,2.9,2.2,5.2,5.7,5.2
				S235.8,33.1,235.8,30.2z"/>
		</g>
	</g>
	<rect x="266.9" y="4" class="st4" width="2" height="39.8"/>
</g>
<g>
	<path class="st5" d="M291.2,3.5h5.5c2.3,0,3.8,0.5,4.8,1.5c0.8,0.8,1.2,1.8,1.2,3.1c0,1.5-0.5,2.7-1.4,3.6c-0.8,0.8-2,1.5-3.5,1.8
		l2.6,5.2h-3.8l-2.4-4.9h-2.5l-1.3,4.9h-3.4L291.2,3.5z M295.5,10.9c1.3,0,2.4-0.3,3.1-1c0.4-0.4,0.6-0.9,0.6-1.5
		c0-0.5-0.2-0.9-0.5-1.2c-0.4-0.4-1.2-0.6-2.2-0.6h-2.8l-1.2,4.4H295.5z"/>
	<path class="st5" d="M306.6,14c0.1,1.4,0.9,2.3,2.7,2.3c0.9,0,1.6-0.3,2.6-0.9l1.5,2c-1,0.9-2.5,1.5-4.5,1.5c-3.4,0-5.4-2-5.4-5.2
		c0-3.4,2.7-7,6.9-7c3,0,4.8,2,4.8,4.5c0,0.8-0.2,1.8-0.6,2.7H306.6z M306.9,12h5.1c0.1-0.2,0.1-0.5,0.1-0.8c0-1-0.6-1.7-1.9-1.7
		C308.7,9.5,307.5,10.5,306.9,12z"/>
	<path class="st5" d="M318.9,7h3.3l-0.3,1.2c0.8-0.7,1.9-1.4,3.2-1.4c2.1,0,3.4,1.3,3.4,3.4c0,0.7-0.2,1.5-0.4,2.2l-1.7,6.3h-3.3
		l1.7-6.4c0.1-0.3,0.2-0.8,0.2-1c0-0.9-0.6-1.4-1.6-1.4c-1.3,0-2.2,0.9-2.5,2.3l-1.8,6.5h-3.3L318.9,7z"/>
	<path class="st5" d="M333.3,14c0.1,1.4,0.9,2.3,2.7,2.3c0.9,0,1.6-0.3,2.6-0.9l1.5,2c-1,0.9-2.5,1.5-4.5,1.5c-3.4,0-5.4-2-5.4-5.2
		c0-3.4,2.7-7,6.9-7c3,0,4.8,2,4.8,4.5c0,0.8-0.2,1.8-0.6,2.7H333.3z M333.6,12h5.1c0.1-0.2,0.1-0.5,0.1-0.8c0-1-0.6-1.7-1.9-1.7
		C335.4,9.5,334.2,10.5,333.6,12z"/>
	<path class="st5" d="M343.9,7h3.4l0,7.1l4.1-7.1h2.9l0.3,7.1l3.8-7.1h3.3l-6.8,11.7h-3l-0.3-7.2l-4.2,7.2h-3L343.9,7z"/>
	<path class="st6" d="M368.4,21.7l0.6-1.3c0.5,0.3,1,0.4,1.8,0.4c1,0,1.6-0.5,2.3-2.1l-5.1-11.2h1.8l4.1,9.4l3.6-9.4h1.8l-4.7,11.6
		c-1,2.3-2,3.2-3.7,3.2C369.9,22.3,369.2,22.1,368.4,21.7z"/>
	<path class="st6" d="M380.6,13.1L380.6,13.1c0-3.2,2.5-5.9,5.9-5.9c3.4,0,5.9,2.7,5.9,5.8v0c0,3.2-2.5,5.9-5.9,5.9
		C383,19,380.6,16.3,380.6,13.1z M390.6,13.1L390.6,13.1c0-2.5-1.8-4.4-4.2-4.4c-2.4,0-4.1,2-4.1,4.4v0c0,2.4,1.8,4.4,4.2,4.4
		C388.9,17.5,390.6,15.5,390.6,13.1z"/>
	<path class="st6" d="M395.1,14.4v-7h1.7V14c0,2.1,1.1,3.4,3.1,3.4c1.9,0,3.4-1.4,3.4-3.5V7.5h1.7v11.2h-1.7v-2
		c-0.8,1.2-1.9,2.2-3.9,2.2C396.7,19,395.1,17.1,395.1,14.4z"/>
	<path class="st6" d="M408.7,7.5h1.7v2.9c0.8-1.9,2.5-3.2,4.6-3.1v1.8h-0.1c-2.5,0-4.5,1.8-4.5,5.2v4.5h-1.7V7.5z"/>
	<path class="st6" d="M424.1,7.5h1.7v2.3c0.9-1.3,2.2-2.5,4.3-2.5c2.7,0,5.4,2.1,5.4,5.8v0c0,3.7-2.7,5.9-5.4,5.9
		c-2.1,0-3.4-1.1-4.3-2.4v5.6h-1.7V7.5z M433.7,13.1L433.7,13.1c0-2.7-1.8-4.4-4-4.4c-2.1,0-4.1,1.8-4.1,4.3v0c0,2.6,2,4.4,4.1,4.4
		C431.9,17.4,433.7,15.8,433.7,13.1z"/>
	<path class="st6" d="M438.3,14.4v-7h1.7V14c0,2.1,1.1,3.4,3.1,3.4c1.9,0,3.4-1.4,3.4-3.5V7.5h1.7v11.2h-1.7v-2
		c-0.8,1.2-1.9,2.2-3.9,2.2C439.9,19,438.3,17.1,438.3,14.4z"/>
	<path class="st6" d="M451.9,7.5h1.7v2.9c0.8-1.9,2.5-3.2,4.6-3.1v1.8h-0.1c-2.5,0-4.5,1.8-4.5,5.2v4.5h-1.7V7.5z"/>
	<path class="st6" d="M460.7,7.5h1.7v2.3c0.9-1.3,2.2-2.5,4.3-2.5c2.7,0,5.4,2.1,5.4,5.8v0c0,3.7-2.7,5.9-5.4,5.9
		c-2.1,0-3.4-1.1-4.3-2.4v5.6h-1.7V7.5z M470.4,13.1L470.4,13.1c0-2.7-1.8-4.4-4-4.4c-2.1,0-4.1,1.8-4.1,4.3v0c0,2.6,2,4.4,4.1,4.4
		C468.6,17.4,470.4,15.8,470.4,13.1z"/>
	<path class="st6" d="M474.5,13.1L474.5,13.1c0-3.2,2.5-5.9,5.9-5.9c3.4,0,5.9,2.7,5.9,5.8v0c0,3.2-2.5,5.9-5.9,5.9
		C477,19,474.5,16.3,474.5,13.1z M484.5,13.1L484.5,13.1c0-2.5-1.8-4.4-4.2-4.4c-2.4,0-4.1,2-4.1,4.4v0c0,2.4,1.8,4.4,4.2,4.4
		C482.8,17.5,484.5,15.5,484.5,13.1z"/>
	<path class="st6" d="M488.3,17.3l0.8-1.2c1.2,0.9,2.6,1.4,3.9,1.4c1.3,0,2.3-0.7,2.3-1.8v0c0-1.1-1.3-1.6-2.8-2
		c-1.8-0.5-3.7-1.1-3.7-3.2v0c0-1.9,1.6-3.2,3.8-3.2c1.4,0,2.9,0.5,4,1.2L496,9.8c-1-0.7-2.2-1.1-3.3-1.1c-1.3,0-2.2,0.7-2.2,1.6v0
		c0,1.1,1.4,1.5,2.9,1.9c1.7,0.5,3.6,1.2,3.6,3.2v0c0,2.1-1.8,3.4-4,3.4C491.4,18.9,489.6,18.3,488.3,17.3z"/>
	<path class="st6" d="M505.1,17.5c1.5,0,2.6-0.6,3.5-1.6l1,0.9c-1.1,1.3-2.5,2.1-4.6,2.1c-3.1,0-5.6-2.4-5.6-5.9
		c0-3.3,2.3-5.9,5.4-5.9c3.3,0,5.2,2.7,5.2,6c0,0.2,0,0.3,0,0.6h-8.9C501.3,16.1,503.1,17.5,505.1,17.5z M508.3,12.4
		c-0.2-2-1.4-3.8-3.6-3.8c-1.9,0-3.4,1.6-3.7,3.8H508.3z"/>
	<path class="st6" d="M512.6,16.4h2v2.3h-2V16.4z"/>
	<path class="st5" d="M291.2,28.2h5.5c2.3,0,3.8,0.5,4.8,1.5c0.8,0.8,1.2,1.8,1.2,3.1c0,1.5-0.5,2.7-1.4,3.6c-0.8,0.8-2,1.5-3.5,1.8
		l2.6,5.2h-3.8l-2.4-4.9h-2.5l-1.3,4.9h-3.4L291.2,28.2z M295.5,35.6c1.3,0,2.4-0.3,3.1-1c0.4-0.4,0.6-0.9,0.6-1.5
		c0-0.5-0.2-0.9-0.5-1.2c-0.4-0.4-1.2-0.6-2.2-0.6h-2.8l-1.2,4.4H295.5z"/>
	<path class="st5" d="M306.6,38.8c0.1,1.4,0.9,2.3,2.7,2.3c0.9,0,1.6-0.3,2.6-0.9l1.5,2c-1,0.9-2.5,1.5-4.5,1.5
		c-3.4,0-5.4-2-5.4-5.2c0-3.4,2.7-7,6.9-7c3,0,4.8,2,4.8,4.5c0,0.8-0.2,1.8-0.6,2.7H306.6z M306.9,36.7h5.1c0.1-0.2,0.1-0.5,0.1-0.8
		c0-1-0.6-1.7-1.9-1.7C308.7,34.2,307.5,35.2,306.9,36.7z"/>
	<path class="st5" d="M318.9,31.8h3.3l-0.3,1.2c0.8-0.7,1.9-1.4,3.2-1.4c2.1,0,3.4,1.3,3.4,3.4c0,0.7-0.2,1.5-0.4,2.2l-1.7,6.3h-3.3
		l1.7-6.4c0.1-0.3,0.2-0.8,0.2-1c0-0.9-0.6-1.4-1.6-1.4c-1.3,0-2.2,0.9-2.5,2.3l-1.8,6.5h-3.3L318.9,31.8z"/>
	<path class="st5" d="M333.3,38.8c0.1,1.4,0.9,2.3,2.7,2.3c0.9,0,1.6-0.3,2.6-0.9l1.5,2c-1,0.9-2.5,1.5-4.5,1.5
		c-3.4,0-5.4-2-5.4-5.2c0-3.4,2.7-7,6.9-7c3,0,4.8,2,4.8,4.5c0,0.8-0.2,1.8-0.6,2.7H333.3z M333.6,36.7h5.1c0.1-0.2,0.1-0.5,0.1-0.8
		c0-1-0.6-1.7-1.9-1.7C335.4,34.2,334.2,35.2,333.6,36.7z"/>
	<path class="st5" d="M343.9,31.8h3.4l0,7.1l4.1-7.1h2.9l0.3,7.1l3.8-7.1h3.3l-6.8,11.8h-3l-0.3-7.2l-4.2,7.2h-3L343.9,31.8z"/>
	<path class="st6" d="M368.4,46.4l0.6-1.3c0.5,0.3,1,0.4,1.8,0.4c1,0,1.6-0.5,2.3-2.1l-5.1-11.2h1.8l4.1,9.4l3.6-9.4h1.8l-4.7,11.6
		c-1,2.3-2,3.2-3.7,3.2C369.9,47,369.2,46.8,368.4,46.4z"/>
	<path class="st6" d="M380.6,37.9L380.6,37.9c0-3.2,2.5-5.9,5.9-5.9c3.4,0,5.9,2.7,5.9,5.8v0c0,3.2-2.5,5.9-5.9,5.9
		C383,43.7,380.6,41.1,380.6,37.9z M390.6,37.9L390.6,37.9c0-2.5-1.8-4.4-4.2-4.4c-2.4,0-4.1,2-4.1,4.4v0c0,2.4,1.8,4.4,4.2,4.4
		C388.9,42.2,390.6,40.2,390.6,37.9z"/>
	<path class="st6" d="M395.1,39.2v-7h1.7v6.6c0,2.1,1.1,3.4,3.1,3.4c1.9,0,3.4-1.4,3.4-3.5v-6.4h1.7v11.2h-1.7v-2
		c-0.8,1.2-1.9,2.2-3.9,2.2C396.7,43.7,395.1,41.9,395.1,39.2z"/>
	<path class="st6" d="M408.7,32.2h1.7v2.9c0.8-1.9,2.5-3.2,4.6-3.1v1.8h-0.1c-2.5,0-4.5,1.8-4.5,5.2v4.5h-1.7V32.2z"/>
	<path class="st6" d="M424.1,32.2h1.7v2.3c0.9-1.3,2.2-2.5,4.3-2.5c2.7,0,5.4,2.1,5.4,5.8v0c0,3.7-2.7,5.9-5.4,5.9
		c-2.1,0-3.4-1.1-4.3-2.4v5.6h-1.7V32.2z M433.7,37.9L433.7,37.9c0-2.7-1.8-4.4-4-4.4c-2.1,0-4.1,1.8-4.1,4.3v0c0,2.6,2,4.4,4.1,4.4
		C431.9,42.2,433.7,40.6,433.7,37.9z"/>
	<path class="st6" d="M437.7,40.2L437.7,40.2c0-2.5,2-3.7,4.8-3.7c1.4,0,2.4,0.2,3.4,0.5v-0.3c0-2-1.2-3-3.3-3
		c-1.3,0-2.4,0.3-3.4,0.8l-0.5-1.4c1.2-0.6,2.4-1,4.1-1c1.6,0,2.8,0.4,3.6,1.2c0.8,0.8,1.2,1.9,1.2,3.3v6.9h-1.7v-1.7
		c-0.8,1-2.1,1.9-4,1.9C439.8,43.7,437.7,42.5,437.7,40.2z M445.9,39.3v-1c-0.8-0.2-1.9-0.5-3.3-0.5c-2.1,0-3.3,0.9-3.3,2.3v0
		c0,1.4,1.3,2.2,2.8,2.2C444.3,42.3,445.9,41.1,445.9,39.3z"/>
	<path class="st6" d="M450.2,42l0.8-1.2c1.2,0.9,2.6,1.4,3.9,1.4c1.3,0,2.3-0.7,2.3-1.8v0c0-1.1-1.3-1.6-2.8-2
		c-1.8-0.5-3.7-1.1-3.7-3.2v0c0-1.9,1.6-3.2,3.8-3.2c1.4,0,2.9,0.5,4,1.2l-0.8,1.3c-1-0.7-2.2-1.1-3.3-1.1c-1.3,0-2.2,0.7-2.2,1.6v0
		c0,1.1,1.4,1.5,2.9,1.9c1.7,0.5,3.6,1.2,3.6,3.2v0c0,2.1-1.8,3.4-4,3.4C453.2,43.7,451.5,43,450.2,42z"/>
	<path class="st6" d="M460.8,42l0.8-1.2c1.2,0.9,2.6,1.4,3.9,1.4c1.3,0,2.3-0.7,2.3-1.8v0c0-1.1-1.3-1.6-2.8-2
		c-1.8-0.5-3.7-1.1-3.7-3.2v0c0-1.9,1.6-3.2,3.8-3.2c1.4,0,2.9,0.5,4,1.2l-0.8,1.3c-1-0.7-2.2-1.1-3.3-1.1c-1.3,0-2.2,0.7-2.2,1.6v0
		c0,1.1,1.4,1.5,2.9,1.9c1.7,0.5,3.6,1.2,3.6,3.2v0c0,2.1-1.8,3.4-4,3.4C463.9,43.7,462.1,43,460.8,42z"/>
	<path class="st6" d="M472.6,27.9h1.9v1.8h-1.9V27.9z M472.7,32.2h1.7v11.2h-1.7V32.2z"/>
	<path class="st6" d="M477.6,37.9L477.6,37.9c0-3.2,2.5-5.9,5.9-5.9c3.4,0,5.9,2.7,5.9,5.8v0c0,3.2-2.5,5.9-5.9,5.9
		C480.1,43.7,477.6,41.1,477.6,37.9z M487.6,37.9L487.6,37.9c0-2.5-1.8-4.4-4.2-4.4c-2.4,0-4.1,2-4.1,4.4v0c0,2.4,1.8,4.4,4.2,4.4
		C485.9,42.2,487.6,40.2,487.6,37.9z"/>
	<path class="st6" d="M492.4,32.2h1.7v2c0.7-1.2,1.9-2.2,3.9-2.2c2.7,0,4.3,1.8,4.3,4.5v7h-1.7v-6.6c0-2.1-1.1-3.4-3.1-3.4
		c-1.9,0-3.4,1.4-3.4,3.5v6.4h-1.7V32.2z"/>
	<path class="st6" d="M505.6,41.2h2v2.3h-2V41.2z"/>
</g>
<g>
</g>
<g>
</g>
<g>
</g>
<g>
</g>
<g>
</g>
<g>
</g>
</svg>
